<svg width="178" height="56" viewBox="0 0 178 56" fill="none" xmlns="http://www.w3.org/2000/svg">
<path d="M40.651 17.7852C40.4714 15.7642 39.9778 13.8003 39.1774 11.927C38.184 9.60154 36.7617 7.51308 34.9497 5.71975C33.1381 3.92643 31.0286 2.51854 28.679 1.53487C26.2465 0.516578 23.6631 0 20.9999 0C18.3368 0 15.753 0.516578 13.3206 1.53487C10.9713 2.51854 8.86149 3.92643 7.04981 5.71975C5.2385 7.51306 3.81587 9.60154 2.82214 11.927C2.11256 13.5878 1.64419 15.3199 1.42188 17.1001C1.55434 17.0783 1.68858 17.0676 1.82349 17.0676C2.06362 17.0676 2.29991 17.1011 2.52782 17.1682C3.70158 8.11338 11.5382 1.093 21 1.093C30.6923 1.093 38.6793 8.46005 39.5458 17.8343C38.8499 18.0889 38.3525 18.7526 38.3525 19.5286C38.3525 20.3047 38.8499 20.968 39.5458 21.2227C39.5807 21.2354 39.6164 21.2472 39.6524 21.2579L39.6598 21.26C39.672 21.2635 39.6842 21.2669 39.6965 21.2704C39.7091 21.2739 39.7216 21.2773 39.7346 21.2801C39.7734 21.2898 39.8125 21.2981 39.8517 21.305C39.865 21.3074 39.8779 21.3098 39.8912 21.3116C39.9045 21.314 39.9177 21.3157 39.9314 21.3175C39.9572 21.3209 39.9831 21.324 40.0093 21.3264C40.0114 21.3264 40.0132 21.3264 40.0153 21.3268C40.0279 21.3278 40.0401 21.3289 40.0527 21.3295C40.0628 21.3302 40.0733 21.3309 40.0834 21.3313C40.0897 21.3316 40.0956 21.332 40.1019 21.3323C40.1124 21.3327 40.1233 21.333 40.1341 21.3334H40.1352C40.1488 21.3334 40.1624 21.3337 40.1761 21.3337C40.1886 21.3337 40.2009 21.3334 40.2131 21.3334C40.2264 21.333 40.2393 21.3327 40.2523 21.3323C40.2631 21.3316 40.2736 21.3313 40.2844 21.3306C40.3473 21.3271 40.4095 21.3202 40.4711 21.3102L40.4773 21.3091C40.5361 21.2994 40.5944 21.2866 40.6511 21.2718C41.4271 21.0642 42 20.3614 42 19.5286C42 18.6958 41.427 17.9928 40.651 17.7852ZM40.7227 19.9916C40.5906 20.1442 40.3945 20.2411 40.176 20.2411C39.9513 20.2411 39.7503 20.1387 39.6185 19.9785C39.5172 19.8556 39.4563 19.6989 39.4563 19.5287C39.4563 19.3584 39.5172 19.2017 39.6185 19.0789C39.7503 18.9187 39.9513 18.8159 40.176 18.8159C40.3945 18.8159 40.5906 18.9128 40.7227 19.0654C40.8307 19.1899 40.8957 19.3519 40.8957 19.5287C40.8957 19.7055 40.8307 19.867 40.7227 19.9916Z" fill="url(#paint0_radial_227_307)"/>
<path d="M40.651 17.7852C40.4714 15.7642 39.9778 13.8003 39.1774 11.927C38.184 9.60154 36.7617 7.51308 34.9497 5.71975C33.1381 3.92643 31.0286 2.51854 28.679 1.53487C26.2465 0.516578 23.6631 0 20.9999 0C18.3368 0 15.753 0.516578 13.3206 1.53487C10.9713 2.51854 8.86149 3.92643 7.04981 5.71975C5.2385 7.51306 3.81587 9.60154 2.82214 11.927C2.11256 13.5878 1.64419 15.3199 1.42188 17.1001C1.55434 17.0783 1.68858 17.0676 1.82349 17.0676C2.06362 17.0676 2.29991 17.1011 2.52782 17.1682C3.70158 8.11338 11.5382 1.093 21 1.093C30.6923 1.093 38.6793 8.46005 39.5458 17.8343C38.8499 18.0889 38.3525 18.7526 38.3525 19.5286C38.3525 20.3047 38.8499 20.968 39.5458 21.2227C39.5807 21.2354 39.6164 21.2472 39.6524 21.2579L39.6598 21.26C39.672 21.2635 39.6842 21.2669 39.6965 21.2704C39.7091 21.2739 39.7216 21.2773 39.7346 21.2801C39.7734 21.2898 39.8125 21.2981 39.8517 21.305C39.865 21.3074 39.8779 21.3098 39.8912 21.3116C39.9045 21.314 39.9177 21.3157 39.9314 21.3175C39.9572 21.3209 39.9831 21.324 40.0093 21.3264C40.0114 21.3264 40.0132 21.3264 40.0153 21.3268C40.0279 21.3278 40.0401 21.3289 40.0527 21.3295C40.0628 21.3302 40.0733 21.3309 40.0834 21.3313C40.0897 21.3316 40.0956 21.332 40.1019 21.3323C40.1124 21.3327 40.1233 21.333 40.1341 21.3334H40.1352C40.1488 21.3334 40.1624 21.3337 40.1761 21.3337C40.1886 21.3337 40.2009 21.3334 40.2131 21.3334C40.2264 21.333 40.2393 21.3327 40.2523 21.3323C40.2631 21.3316 40.2736 21.3313 40.2844 21.3306C40.3473 21.3271 40.4095 21.3202 40.4711 21.3102L40.4773 21.3091C40.5361 21.2994 40.5944 21.2866 40.6511 21.2718C41.4271 21.0642 42 20.3614 42 19.5286C42 18.6958 41.427 17.9928 40.651 17.7852ZM40.7227 19.9916C40.5906 20.1442 40.3945 20.2411 40.176 20.2411C39.9513 20.2411 39.7503 20.1387 39.6185 19.9785C39.5172 19.8556 39.4563 19.6989 39.4563 19.5287C39.4563 19.3584 39.5172 19.2017 39.6185 19.0789C39.7503 18.9187 39.9513 18.8159 40.176 18.8159C40.3945 18.8159 40.5906 18.9128 40.7227 19.0654C40.8307 19.1899 40.8957 19.3519 40.8957 19.5287C40.8957 19.7055 40.8307 19.867 40.7227 19.9916Z" fill="url(#paint1_radial_227_307)"/>
<path d="M22.5108 5.93461C22.5104 5.92839 22.5104 5.92181 22.51 5.91558C22.5097 5.90449 22.5093 5.89344 22.5086 5.88236C22.5079 5.8744 22.5072 5.86643 22.5069 5.85882C22.5062 5.85121 22.5055 5.84393 22.5051 5.83634C22.502 5.80589 22.4985 5.7758 22.4936 5.74569L22.4905 5.72598C22.4831 5.681 22.4733 5.6367 22.4618 5.59312C22.2919 4.95129 21.7009 4.47656 21 4.47656C20.2992 4.47656 19.7081 4.95127 19.5379 5.59312C18.1429 5.73393 16.7871 6.07751 15.492 6.62006C13.8069 7.32522 12.293 8.33554 10.9927 9.62266C9.69244 10.9098 8.67214 12.4083 7.95908 14.076C7.22191 15.8022 6.8479 17.6367 6.8479 19.5287C6.8479 20.5521 6.95732 21.559 7.17506 22.5406C7.26664 22.9565 7.37815 23.3683 7.50887 23.7745C7.63959 24.182 7.78991 24.5844 7.95908 24.981C8.42151 26.0626 9.01295 27.0725 9.72671 28.0002C9.91615 28.2472 10.1151 28.4887 10.322 28.7237C10.5366 28.9672 10.7603 29.2042 10.9927 29.4343C12.293 30.7215 13.8069 31.7318 15.492 32.4373C16.6088 32.9051 17.7706 33.2248 18.9636 33.3943C18.9479 33.2923 18.9398 33.1888 18.9398 33.0847C18.9398 32.8812 18.9703 32.6812 19.03 32.4888C17.9367 32.3279 16.872 32.0321 15.8482 31.6034C14.2721 30.9436 12.8561 29.9983 11.6397 28.7939C11.3811 28.5378 11.1343 28.2732 10.9001 27.9998C10.698 27.7649 10.5055 27.5237 10.3223 27.2766C9.71374 26.4577 9.20517 25.5719 8.80178 24.6284C8.58122 24.1121 8.39526 23.5855 8.24497 23.0499C8.13032 22.643 8.03594 22.2309 7.96218 21.8147C7.82935 21.0659 7.76259 20.3023 7.76259 19.5286C7.76259 17.7585 8.11214 16.0427 8.80178 14.4289C9.46835 12.8688 10.4229 11.4675 11.6397 10.2631C12.8561 9.05898 14.2721 8.11371 15.8482 7.45389C17.0446 6.95288 18.2967 6.63317 19.5854 6.49857C19.8007 7.06463 20.3537 7.46842 21 7.46842C21.6463 7.46842 22.1993 7.06463 22.4146 6.49857C22.4226 6.47817 22.43 6.4574 22.4366 6.43664C22.4394 6.42902 22.4419 6.42141 22.444 6.41346C22.4447 6.41209 22.4454 6.41069 22.4454 6.40896C22.4482 6.40031 22.4506 6.39132 22.4534 6.38231C22.4558 6.37366 22.4583 6.36468 22.4607 6.35567C22.4632 6.34702 22.4653 6.33837 22.4674 6.32972C22.4698 6.32038 22.4719 6.31139 22.474 6.30238C22.4782 6.28472 22.4817 6.26675 22.4852 6.24909C22.4859 6.24529 22.4866 6.24182 22.4873 6.23801C22.4891 6.22902 22.4905 6.21968 22.4922 6.21033C22.4936 6.20031 22.4954 6.19026 22.4968 6.17988C22.4971 6.17815 22.4971 6.17641 22.4975 6.17434C22.4988 6.16499 22.4999 6.15567 22.5009 6.14596C22.5013 6.14353 22.5017 6.14112 22.502 6.13869C22.5044 6.11792 22.5062 6.09752 22.5076 6.07641C22.5079 6.07572 22.5079 6.07504 22.5076 6.07434C22.5083 6.06466 22.509 6.05531 22.5093 6.04596C22.51 6.03247 22.5104 6.01898 22.5107 6.00549C22.5111 5.99441 22.5111 5.98335 22.5111 5.97227C22.5111 5.95986 22.5111 5.9474 22.5108 5.93461ZM21.3758 6.43042C21.273 6.51312 21.1423 6.56294 21 6.56294C20.8578 6.56294 20.727 6.51312 20.6243 6.43042C20.4897 6.32213 20.4037 6.15708 20.4037 5.97231C20.4037 5.79377 20.4841 5.63287 20.6117 5.52458C20.7158 5.43566 20.8518 5.38204 21 5.38204C21.1482 5.38204 21.2838 5.43566 21.3884 5.52458C21.5159 5.63287 21.5963 5.79377 21.5963 5.97231C21.5963 6.15708 21.5104 6.32213 21.3758 6.43042Z" fill="url(#paint2_radial_227_307)"/>
<path d="M31.1 27.9999C30.8655 28.2732 30.619 28.5379 30.3604 28.794C29.1436 29.9984 27.7277 30.9437 26.1519 31.6035C24.9551 32.1045 23.7034 32.4242 22.4146 32.5588C22.1993 31.9927 21.6464 31.589 21.0001 31.589C20.5736 31.589 20.1881 31.7647 19.913 32.0467C19.7711 32.1921 19.6589 32.3661 19.5855 32.5588C19.5229 32.7225 19.489 32.8996 19.489 33.0847C19.489 33.2159 19.5058 33.3432 19.5379 33.4643C19.5949 33.6792 19.6991 33.875 19.8385 34.0407C20.1157 34.3705 20.5338 34.5808 21.0001 34.5808C21.7009 34.5808 22.292 34.1058 22.4618 33.4643C23.8568 33.3235 25.2127 32.9799 26.5081 32.4374C28.1932 31.7319 29.7067 30.7216 31.007 29.4344C31.2398 29.204 31.4635 28.967 31.6778 28.7234C31.4943 28.476 31.3017 28.2348 31.1 27.9999ZM21.3884 33.5324C21.2839 33.6214 21.1483 33.6753 21.0001 33.6753C20.8519 33.6753 20.7159 33.6214 20.6117 33.5324C20.4842 33.4242 20.4037 33.2636 20.4037 33.0847C20.4037 32.9003 20.4898 32.7353 20.624 32.627C20.7267 32.5439 20.8575 32.4944 21.0001 32.4944C21.1427 32.4944 21.2734 32.5439 21.3762 32.627C21.5104 32.7353 21.5964 32.9003 21.5964 33.0847C21.5964 33.2636 21.516 33.4241 21.3884 33.5324Z" fill="url(#paint3_radial_227_307)"/>
<path d="M34.8253 33.4594C34.7337 33.0435 34.6222 32.6318 34.4915 32.2256C34.3607 31.818 34.2104 31.4156 34.0409 31.0191C33.5791 29.9375 32.9874 28.9275 32.2736 28.0002C32.0838 27.7532 31.8853 27.5117 31.678 27.2767C31.4637 27.0331 31.24 26.7961 31.0072 26.5657C29.707 25.2786 28.1934 24.2682 26.5083 23.5627C25.3915 23.0953 24.2296 22.7752 23.0363 22.6057C23.0524 22.7081 23.0604 22.8116 23.0604 22.9154C23.0604 23.1188 23.0304 23.3188 22.9703 23.5112C24.0636 23.6721 25.1283 23.9679 26.1521 24.3966C27.7282 25.0564 29.1438 26.0017 30.3606 27.2058C30.6189 27.4618 30.8657 27.7265 31.1002 27.9999C31.3019 28.2348 31.4945 28.476 31.678 28.7234C32.2865 29.5424 32.7951 30.4281 33.1985 31.372C33.4191 31.8882 33.605 32.4145 33.7553 32.9501C33.87 33.3567 33.9644 33.7687 34.0381 34.1853C34.1709 34.9344 34.2377 35.6974 34.2377 36.4714C34.2377 38.2415 33.8882 39.9573 33.1985 41.5711C32.532 43.1312 31.577 44.5329 30.3606 45.737C29.1439 46.9414 27.7282 47.8863 26.1522 48.5461C24.9557 49.0471 23.7037 49.3669 22.4149 49.5014C22.1996 48.9354 21.6466 48.5316 21.0003 48.5316C20.5742 48.5316 20.1883 48.7074 19.9136 48.9894C19.7713 49.135 19.6591 49.3087 19.5857 49.5014C19.5232 49.6655 19.4893 49.8426 19.4893 50.0277C19.4893 50.1585 19.506 50.2858 19.5385 50.4069C19.5952 50.6218 19.6993 50.818 19.8391 50.9837C20.1163 51.3134 20.534 51.5235 21.0003 51.5235C21.7011 51.5235 22.2922 51.0488 22.4621 50.4069C23.8574 50.2664 25.2133 49.9225 26.5083 49.3803C28.1935 48.6748 29.707 47.6645 31.0073 46.3774C32.3076 45.0903 33.3286 43.5917 34.0409 41.924C34.7785 40.1978 35.1525 38.3633 35.1525 36.4714C35.1524 35.4479 35.0431 34.4414 34.8253 33.4594ZM21.3886 50.4754C21.2845 50.5643 21.1489 50.618 21.0003 50.618C20.8521 50.618 20.7161 50.5643 20.612 50.4754C20.4847 50.3668 20.404 50.2066 20.404 50.0277C20.404 49.8433 20.49 49.6779 20.6245 49.5699C20.7269 49.4869 20.858 49.4374 21.0003 49.4374C21.1429 49.4374 21.2736 49.4869 21.3764 49.5699C21.511 49.6783 21.597 49.8433 21.597 50.0277C21.5969 50.2066 21.5162 50.3668 21.3886 50.4754Z" fill="url(#paint4_radial_227_307)"/>
<path d="M7.17456 33.4597C7.43112 33.7095 7.69362 33.9514 7.96208 34.1856L7.17456 33.4597Z" fill="url(#paint5_radial_227_307)"/>
<path d="M33.755 32.9501C30.4197 36.0579 25.9306 37.9643 21 37.9643C16.0694 37.9643 11.5799 36.0579 8.24494 32.9501C7.99291 32.7155 7.74718 32.4736 7.50882 32.2255C6.30362 30.9713 5.27458 29.5496 4.46119 28.0002C4.25042 27.5985 4.05395 27.1885 3.87325 26.7701C3.12349 25.0405 2.63412 23.1752 2.45376 21.2227C3.15005 20.968 3.64745 20.3047 3.64745 19.5287C3.64745 19.0162 3.43073 18.553 3.08295 18.2243C2.90434 18.0547 2.69041 17.9208 2.45378 17.8343C2.25733 17.7627 2.04516 17.7233 1.82355 17.7233C1.65928 17.7233 1.50023 17.7451 1.34888 17.7852C1.08918 17.8548 0.852186 17.9797 0.651893 18.1461C0.253421 18.4779 0 18.9744 0 19.5287C0 20.3615 0.572552 21.0642 1.34888 21.2719C1.5282 23.2929 2.02175 25.2568 2.8222 27.13C2.94768 27.4238 3.08015 27.7141 3.21962 28.0002C3.42306 28.4185 3.64083 28.8285 3.87291 29.2299C4.73872 30.7263 5.80201 32.102 7.04987 33.3373C7.0911 33.3784 7.13272 33.4189 7.17465 33.4597L7.96217 34.1856C9.55781 35.5797 11.3555 36.6997 13.3206 37.5221C15.7531 38.5408 18.3369 39.0573 21 39.0573C23.6631 39.0573 26.2466 38.5408 28.679 37.5221C30.6445 36.6993 32.4422 35.5797 34.0378 34.1853C33.964 33.7687 33.8697 33.3566 33.755 32.9501ZM1.82353 20.2411C1.60542 20.2411 1.40934 20.1442 1.27721 19.9916C1.1692 19.8671 1.10383 19.7055 1.10383 19.5287C1.10383 19.3519 1.1692 19.1899 1.27721 19.0654C1.40934 18.9128 1.60542 18.8159 1.82353 18.8159C2.04828 18.8159 2.24929 18.9187 2.38105 19.0789C2.48278 19.2017 2.54323 19.3585 2.54323 19.5287C2.54323 19.6989 2.48275 19.8557 2.38105 19.9785C2.24929 20.1387 2.04831 20.2411 1.82353 20.2411Z" fill="url(#paint6_radial_227_307)"/>
<path d="M40.6511 34.7282C40.4718 32.7072 39.9779 30.7433 39.1774 28.87C39.052 28.5759 38.9195 28.286 38.7804 27.9998C38.5769 27.5812 38.3588 27.1712 38.1267 26.7698C37.2613 25.2733 36.198 23.898 34.9498 22.6627C34.9085 22.6219 34.8669 22.5811 34.825 22.5406C34.5684 22.2908 34.3063 22.0489 34.0378 21.8147C32.4425 20.4203 30.6448 19.3007 28.6794 18.4779C26.2469 17.4592 23.6631 16.943 21 16.943C18.3368 16.943 15.753 17.4592 13.3206 18.4779C11.3555 19.3007 9.5578 20.4203 7.96216 21.8147C8.03592 22.2309 8.13028 22.643 8.24495 23.0499C11.5799 19.9421 16.0694 18.0357 21 18.0357C25.931 18.0357 30.4201 19.9421 33.755 23.0499C34.0071 23.2845 34.2528 23.5264 34.4912 23.7745C35.6964 25.0287 36.7254 26.4501 37.5388 27.9995C37.7496 28.4012 37.946 28.8115 38.1267 29.2299C38.8765 30.9595 39.3658 32.8248 39.5462 34.7769C38.8503 35.0316 38.3525 35.6952 38.3525 36.4713C38.3525 37.2477 38.8503 37.911 39.5462 38.1657C39.5812 38.1781 39.6164 38.1899 39.6525 38.2006L39.6602 38.2031C39.672 38.2065 39.6843 38.21 39.6965 38.2131C39.7091 38.2169 39.722 38.22 39.7346 38.2231C39.7734 38.2328 39.8126 38.2411 39.8521 38.248C39.865 38.2505 39.8783 38.2525 39.8916 38.2546C39.9048 38.2567 39.9178 38.2588 39.9314 38.2605C39.9573 38.264 39.9832 38.2667 40.0097 38.2691C40.0115 38.2695 40.0132 38.2695 40.0153 38.2695C40.0279 38.2708 40.0401 38.2719 40.0527 38.2726C40.0628 38.2729 40.0733 38.2736 40.0834 38.2743C40.0897 38.2747 40.096 38.275 40.102 38.275C40.1128 38.2754 40.1236 38.2761 40.1341 38.2761H40.1352C40.1488 38.2764 40.1624 38.2768 40.1761 38.2768C40.1887 38.2768 40.2009 38.2764 40.2135 38.2761C40.2264 38.2761 40.2393 38.2754 40.2523 38.275C40.2631 38.2747 40.2739 38.274 40.2848 38.2736C40.3473 38.2698 40.4095 38.2629 40.4711 38.2529L40.4777 38.2518C40.5364 38.2421 40.5945 38.2297 40.6511 38.2145C41.4271 38.0072 41.9999 37.3041 41.9999 36.4713C41.9999 35.6385 41.4271 34.9354 40.6511 34.7282ZM40.7228 36.9346C40.5906 37.0869 40.3945 37.1837 40.1761 37.1837C39.9513 37.1837 39.7507 37.0813 39.6189 36.9211C39.5172 36.7986 39.4564 36.6419 39.4564 36.4713C39.4564 36.3011 39.5172 36.1443 39.6189 36.0215C39.7507 35.8613 39.9513 35.7589 40.1761 35.7589C40.3946 35.7589 40.5906 35.8558 40.7228 36.0084C40.8308 36.1329 40.8962 36.2948 40.8962 36.4713C40.8961 36.6481 40.8308 36.8101 40.7228 36.9346Z" fill="url(#paint7_radial_227_307)"/>
<path d="M22.5107 22.8776C22.5107 22.8714 22.5103 22.8648 22.5103 22.8582C22.51 22.8475 22.5093 22.8361 22.5086 22.825C22.5079 22.8174 22.5075 22.8095 22.5069 22.8015C22.5065 22.7942 22.5058 22.7866 22.5051 22.7793C22.5023 22.7489 22.4984 22.7184 22.4935 22.6887L22.4908 22.669C22.4831 22.624 22.4733 22.5793 22.4618 22.5357C22.2919 21.8939 21.7008 21.4192 21 21.4192C20.2992 21.4192 19.7081 21.8939 19.5382 22.5357C18.1428 22.6766 16.787 23.0205 15.492 23.5627C13.8068 24.2682 12.2933 25.2785 10.993 26.5656C10.7602 26.7961 10.5365 27.0331 10.3223 27.2767C10.5054 27.5237 10.698 27.7649 10.9001 27.9998C11.1346 27.7265 11.3814 27.4618 11.6397 27.2057C12.8564 26.0017 14.2721 25.0564 15.8481 24.3966C17.0446 23.8959 18.297 23.5758 19.5854 23.4412C19.8007 24.0073 20.3537 24.4111 21 24.4111C21.6463 24.4111 22.1993 24.0073 22.4146 23.4412C22.4226 23.4208 22.43 23.4004 22.437 23.3796V23.3793C22.4394 23.3717 22.4419 23.3641 22.444 23.3565C22.4447 23.3551 22.4453 23.3534 22.4453 23.3516C22.4481 23.343 22.4506 23.3343 22.4534 23.3253C22.4562 23.3163 22.4583 23.3077 22.4607 23.2987C22.4632 23.29 22.4653 23.2814 22.4677 23.2727C22.4698 23.2634 22.4723 23.2544 22.474 23.2454C22.4782 23.2274 22.4817 23.2098 22.4852 23.1918C22.4859 23.1883 22.487 23.1845 22.4873 23.181C22.4891 23.1717 22.4908 23.1623 22.4922 23.1534C22.4936 23.143 22.4954 23.133 22.4967 23.1229C22.4971 23.1208 22.4971 23.1191 22.4975 23.1174C22.4988 23.1077 22.4999 23.0983 22.5009 23.0887C22.5013 23.0862 22.502 23.0842 22.502 23.0817C22.5044 23.061 22.5062 23.0402 22.5076 23.0191C22.5079 23.0184 22.5079 23.0177 22.5076 23.017C22.5083 23.0077 22.509 22.9983 22.5093 22.9887C22.5104 22.9752 22.5107 22.9617 22.5111 22.9482C22.5111 22.9375 22.5114 22.9264 22.5114 22.9153C22.5114 22.9029 22.511 22.8901 22.5107 22.8776ZM21.3757 23.3731C21.2733 23.4561 21.1422 23.5056 21 23.5056C20.8577 23.5056 20.7269 23.4561 20.6242 23.3731C20.4896 23.2651 20.4036 23.0998 20.4036 22.9153C20.4036 22.7365 20.4844 22.5759 20.6116 22.4676C20.7158 22.3787 20.8517 22.3247 21 22.3247C21.1485 22.3247 21.2841 22.3787 21.3883 22.4676C21.5159 22.5759 21.5966 22.7365 21.5966 22.9153C21.5966 23.0997 21.5103 23.2651 21.3757 23.3731Z" fill="url(#paint8_radial_227_307)"/>
<path d="M22.5107 22.8776C22.5107 22.8714 22.5103 22.8648 22.5103 22.8582C22.51 22.8475 22.5093 22.8361 22.5086 22.825C22.5079 22.8174 22.5075 22.8095 22.5069 22.8015C22.5065 22.7942 22.5058 22.7866 22.5051 22.7793C22.5023 22.7489 22.4984 22.7184 22.4935 22.6887L22.4908 22.669C22.4831 22.624 22.4733 22.5793 22.4618 22.5357C22.2919 21.8939 21.7008 21.4192 21 21.4192C20.2992 21.4192 19.7081 21.8939 19.5382 22.5357C18.1428 22.6766 16.787 23.0205 15.492 23.5627C13.8068 24.2682 12.2933 25.2785 10.993 26.5656C10.7602 26.7961 10.5365 27.0331 10.3223 27.2767C10.5054 27.5237 10.698 27.7649 10.9001 27.9998C11.1346 27.7265 11.3814 27.4618 11.6397 27.2057C12.8564 26.0017 14.2721 25.0564 15.8481 24.3966C17.0446 23.8959 18.297 23.5758 19.5854 23.4412C19.8007 24.0073 20.3537 24.4111 21 24.4111C21.6463 24.4111 22.1993 24.0073 22.4146 23.4412C22.4226 23.4208 22.43 23.4004 22.437 23.3796V23.3793C22.4394 23.3717 22.4419 23.3641 22.444 23.3565C22.4447 23.3551 22.4453 23.3534 22.4453 23.3516C22.4481 23.343 22.4506 23.3343 22.4534 23.3253C22.4562 23.3163 22.4583 23.3077 22.4607 23.2987C22.4632 23.29 22.4653 23.2814 22.4677 23.2727C22.4698 23.2634 22.4723 23.2544 22.474 23.2454C22.4782 23.2274 22.4817 23.2098 22.4852 23.1918C22.4859 23.1883 22.487 23.1845 22.4873 23.181C22.4891 23.1717 22.4908 23.1623 22.4922 23.1534C22.4936 23.143 22.4954 23.133 22.4967 23.1229C22.4971 23.1208 22.4971 23.1191 22.4975 23.1174C22.4988 23.1077 22.4999 23.0983 22.5009 23.0887C22.5013 23.0862 22.502 23.0842 22.502 23.0817C22.5044 23.061 22.5062 23.0402 22.5076 23.0191C22.5079 23.0184 22.5079 23.0177 22.5076 23.017C22.5083 23.0077 22.509 22.9983 22.5093 22.9887C22.5104 22.9752 22.5107 22.9617 22.5111 22.9482C22.5111 22.9375 22.5114 22.9264 22.5114 22.9153C22.5114 22.9029 22.511 22.8901 22.5107 22.8776ZM21.3757 23.3731C21.2733 23.4561 21.1422 23.5056 21 23.5056C20.8577 23.5056 20.7269 23.4561 20.6242 23.3731C20.4896 23.2651 20.4036 23.0998 20.4036 22.9153C20.4036 22.7365 20.4844 22.5759 20.6116 22.4676C20.7158 22.3787 20.8517 22.3247 21 22.3247C21.1485 22.3247 21.2841 22.3787 21.3883 22.4676C21.5159 22.5759 21.5966 22.7365 21.5966 22.9153C21.5966 23.0997 21.5103 23.2651 21.3757 23.3731Z" fill="url(#paint9_radial_227_307)"/>
<path d="M40.1761 38.9324C39.9366 38.9324 39.7004 38.8985 39.4721 38.8318C38.2983 47.8866 30.462 54.9073 21 54.9073C11.3076 54.9073 3.32062 47.5403 2.45376 38.1657C3.15005 37.9111 3.64745 37.2478 3.64745 36.4714C3.64745 35.9589 3.43073 35.496 3.08329 35.1669C2.90434 34.9974 2.69041 34.8638 2.45376 34.777C2.25768 34.7054 2.04515 34.6663 1.8239 34.6663C1.65962 34.6663 1.50021 34.6877 1.34888 34.7282C1.08918 34.7974 0.852186 34.9223 0.651893 35.0891C0.253763 35.4205 0 35.9174 0 36.4714C0 37.3042 0.572894 38.0073 1.34888 38.2145C1.5282 40.2355 2.02176 42.1997 2.82254 44.073C3.81628 46.3985 5.23856 48.4869 7.05021 50.2803C8.86153 52.0736 10.9717 53.4815 13.3206 54.4651C15.7531 55.4834 18.3369 56 21 56C23.6631 56 26.2469 55.4834 28.6794 54.4651C31.0286 53.4815 33.1384 52.0736 34.9498 50.2803C36.7618 48.487 38.184 46.3985 39.1774 44.073C39.8873 42.4122 40.3557 40.6801 40.5777 38.9003C40.4452 38.9217 40.311 38.9324 40.1761 38.9324ZM1.8239 37.1837C1.60542 37.1837 1.40934 37.0869 1.27721 36.9346C1.1692 36.8101 1.10383 36.6481 1.10383 36.4713C1.10383 36.2949 1.1692 36.133 1.27721 36.0084C1.40934 35.8558 1.60542 35.7589 1.8239 35.7589C2.04865 35.7589 2.24929 35.8613 2.38107 36.0215C2.4828 36.1444 2.54361 36.3011 2.54361 36.4713C2.54361 36.6419 2.4828 36.7987 2.38107 36.9211C2.24929 37.0813 2.04865 37.1837 1.8239 37.1837Z" fill="url(#paint10_radial_227_307)"/>
<path d="M64.44 36.168C63.272 36.168 62.216 35.968 61.272 35.568C60.344 35.168 59.608 34.592 59.064 33.84C58.52 33.088 58.24 32.2 58.224 31.176H61.824C61.872 31.864 62.112 32.408 62.544 32.808C62.992 33.208 63.6 33.408 64.368 33.408C65.152 33.408 65.768 33.224 66.216 32.856C66.664 32.472 66.888 31.976 66.888 31.368C66.888 30.872 66.736 30.464 66.432 30.144C66.128 29.824 65.744 29.576 65.28 29.4C64.832 29.208 64.208 29 63.408 28.776C62.32 28.456 61.432 28.144 60.744 27.84C60.072 27.52 59.488 27.048 58.992 26.424C58.512 25.784 58.272 24.936 58.272 23.88C58.272 22.888 58.52 22.024 59.016 21.288C59.512 20.552 60.208 19.992 61.104 19.608C62 19.208 63.024 19.008 64.176 19.008C65.904 19.008 67.304 19.432 68.376 20.28C69.464 21.112 70.064 22.28 70.176 23.784H66.48C66.448 23.208 66.2 22.736 65.736 22.368C65.288 21.984 64.688 21.792 63.936 21.792C63.28 21.792 62.752 21.96 62.352 22.296C61.968 22.632 61.776 23.12 61.776 23.76C61.776 24.208 61.92 24.584 62.208 24.888C62.512 25.176 62.88 25.416 63.312 25.608C63.76 25.784 64.384 25.992 65.184 26.232C66.272 26.552 67.16 26.872 67.848 27.192C68.536 27.512 69.128 27.992 69.624 28.632C70.12 29.272 70.368 30.112 70.368 31.152C70.368 32.048 70.136 32.88 69.672 33.648C69.208 34.416 68.528 35.032 67.632 35.496C66.736 35.944 65.672 36.168 64.44 36.168ZM86.313 22.704V36H82.929V34.32C82.497 34.896 81.929 35.352 81.225 35.688C80.537 36.008 79.785 36.168 78.969 36.168C77.929 36.168 77.009 35.952 76.209 35.52C75.409 35.072 74.777 34.424 74.313 33.576C73.865 32.712 73.641 31.688 73.641 30.504V22.704H77.001V30.024C77.001 31.08 77.265 31.896 77.793 32.472C78.321 33.032 79.041 33.312 79.953 33.312C80.881 33.312 81.609 33.032 82.137 32.472C82.665 31.896 82.929 31.08 82.929 30.024V22.704H86.313ZM93.4682 24.624C93.9002 24.016 94.4922 23.512 95.2442 23.112C96.0122 22.696 96.8842 22.488 97.8602 22.488C98.9962 22.488 100.02 22.768 100.932 23.328C101.86 23.888 102.588 24.688 103.116 25.728C103.66 26.752 103.932 27.944 103.932 29.304C103.932 30.664 103.66 31.872 103.116 32.928C102.588 33.968 101.86 34.776 100.932 35.352C100.02 35.928 98.9962 36.216 97.8602 36.216C96.8842 36.216 96.0202 36.016 95.2682 35.616C94.5322 35.216 93.9322 34.712 93.4682 34.104V42.336H90.1082V22.704H93.4682V24.624ZM100.5 29.304C100.5 28.504 100.332 27.816 99.9962 27.24C99.6762 26.648 99.2442 26.2 98.7002 25.896C98.1722 25.592 97.5962 25.44 96.9722 25.44C96.3642 25.44 95.7882 25.6 95.2442 25.92C94.7162 26.224 94.2842 26.672 93.9482 27.264C93.6282 27.856 93.4682 28.552 93.4682 29.352C93.4682 30.152 93.6282 30.848 93.9482 31.44C94.2842 32.032 94.7162 32.488 95.2442 32.808C95.7882 33.112 96.3642 33.264 96.9722 33.264C97.5962 33.264 98.1722 33.104 98.7002 32.784C99.2442 32.464 99.6762 32.008 99.9962 31.416C100.332 30.824 100.5 30.12 100.5 29.304ZM119.214 29.064C119.214 29.544 119.182 29.976 119.118 30.36H109.398C109.478 31.32 109.814 32.072 110.406 32.616C110.998 33.16 111.726 33.432 112.59 33.432C113.838 33.432 114.726 32.896 115.254 31.824H118.878C118.494 33.104 117.758 34.16 116.67 34.992C115.582 35.808 114.246 36.216 112.662 36.216C111.382 36.216 110.23 35.936 109.206 35.376C108.198 34.8 107.406 33.992 106.83 32.952C106.27 31.912 105.99 30.712 105.99 29.352C105.99 27.976 106.27 26.768 106.83 25.728C107.39 24.688 108.174 23.888 109.182 23.328C110.19 22.768 111.35 22.488 112.662 22.488C113.926 22.488 115.054 22.76 116.046 23.304C117.054 23.848 117.83 24.624 118.374 25.632C118.934 26.624 119.214 27.768 119.214 29.064ZM115.734 28.104C115.718 27.24 115.406 26.552 114.798 26.04C114.19 25.512 113.446 25.248 112.566 25.248C111.734 25.248 111.03 25.504 110.454 26.016C109.894 26.512 109.55 27.208 109.422 28.104H115.734ZM125.506 24.768C125.938 24.064 126.498 23.512 127.186 23.112C127.89 22.712 128.69 22.512 129.586 22.512V26.04H128.698C127.642 26.04 126.842 26.288 126.298 26.784C125.77 27.28 125.506 28.144 125.506 29.376V36H122.146V22.704H125.506V24.768ZM144.545 24.432C144.545 25.328 144.329 26.168 143.897 26.952C143.481 27.736 142.817 28.368 141.905 28.848C141.009 29.328 139.873 29.568 138.497 29.568H135.689V36H132.329V19.248H138.497C139.793 19.248 140.897 19.472 141.809 19.92C142.721 20.368 143.401 20.984 143.849 21.768C144.313 22.552 144.545 23.44 144.545 24.432ZM138.353 26.856C139.281 26.856 139.969 26.648 140.417 26.232C140.865 25.8 141.089 25.2 141.089 24.432C141.089 22.8 140.177 21.984 138.353 21.984H135.689V26.856H138.353ZM146.547 29.304C146.547 27.96 146.811 26.768 147.339 25.728C147.883 24.688 148.611 23.888 149.523 23.328C150.451 22.768 151.483 22.488 152.619 22.488C153.611 22.488 154.475 22.688 155.211 23.088C155.963 23.488 156.563 23.992 157.011 24.6V22.704H160.395V36H157.011V34.056C156.579 34.68 155.979 35.2 155.211 35.616C154.459 36.016 153.587 36.216 152.595 36.216C151.475 36.216 150.451 35.928 149.523 35.352C148.611 34.776 147.883 33.968 147.339 32.928C146.811 31.872 146.547 30.664 146.547 29.304ZM157.011 29.352C157.011 28.536 156.851 27.84 156.531 27.264C156.211 26.672 155.779 26.224 155.235 25.92C154.691 25.6 154.107 25.44 153.483 25.44C152.859 25.44 152.283 25.592 151.755 25.896C151.227 26.2 150.795 26.648 150.459 27.24C150.139 27.816 149.979 28.504 149.979 29.304C149.979 30.104 150.139 30.808 150.459 31.416C150.795 32.008 151.227 32.464 151.755 32.784C152.299 33.104 152.875 33.264 153.483 33.264C154.107 33.264 154.691 33.112 155.235 32.808C155.779 32.488 156.211 32.04 156.531 31.464C156.851 30.872 157.011 30.168 157.011 29.352ZM176.877 22.704L168.645 42.288H165.069L167.949 35.664L162.621 22.704H166.389L169.821 31.992L173.301 22.704H176.877Z" fill="#0051FF"/>
<defs>
<radialGradient id="paint0_radial_227_307" cx="0" cy="0" r="1" gradientUnits="userSpaceOnUse" gradientTransform="translate(-0.0335802 10.1647) scale(16.3141 16.149)">
<stop stop-color="white"/>
<stop offset="0.4866" stop-color="#4285F4"/>
<stop offset="1" stop-color="#296DFF"/>
</radialGradient>
<radialGradient id="paint1_radial_227_307" cx="0" cy="0" r="1" gradientUnits="userSpaceOnUse" gradientTransform="translate(-0.0335802 10.1647) scale(16.3141 16.149)">
<stop stop-color="white"/>
<stop offset="0.4866" stop-color="#4285F4"/>
<stop offset="1" stop-color="#2564DE"/>
</radialGradient>
<radialGradient id="paint2_radial_227_307" cx="0" cy="0" r="1" gradientUnits="userSpaceOnUse" gradientTransform="translate(14.6795 18.9354) scale(11.7194 11.6008)">
<stop stop-color="white"/>
<stop offset="0.4866" stop-color="#4285F4"/>
<stop offset="1" stop-color="#296DFF"/>
</radialGradient>
<radialGradient id="paint3_radial_227_307" cx="0" cy="0" r="1" gradientUnits="userSpaceOnUse" gradientTransform="translate(25.7046 27.178) scale(5.88271 5.82316)">
<stop stop-color="white"/>
<stop offset="0.4866" stop-color="#4285F4"/>
<stop offset="1" stop-color="#296DFF"/>
</radialGradient>
<radialGradient id="paint4_radial_227_307" cx="0" cy="0" r="1" gradientUnits="userSpaceOnUse" gradientTransform="translate(27.3208 37.0646) scale(11.7194 11.6008)">
<stop stop-color="white"/>
<stop offset="0.6043" stop-color="#4285F4"/>
<stop offset="1" stop-color="#296DFF"/>
</radialGradient>
<radialGradient id="paint5_radial_227_307" cx="0" cy="0" r="1" gradientUnits="userSpaceOnUse" gradientTransform="translate(7.56831 33.8227) scale(0.380453 0.376603)">
<stop stop-color="white"/>
<stop offset="0.4866" stop-color="#4285F4"/>
<stop offset="1" stop-color="#296DFF"/>
</radialGradient>
<radialGradient id="paint6_radial_227_307" cx="0" cy="0" r="1" gradientUnits="userSpaceOnUse" gradientTransform="translate(17.0189 28.3903) scale(14.2437 14.0996)">
<stop stop-color="white"/>
<stop offset="0.4866" stop-color="#4285F4"/>
<stop offset="1" stop-color="#296DFF"/>
</radialGradient>
<radialGradient id="paint7_radial_227_307" cx="0" cy="0" r="1" gradientUnits="userSpaceOnUse" gradientTransform="translate(24.9811 27.6099) scale(14.2437 14.0995)">
<stop stop-color="white"/>
<stop offset="0.6043" stop-color="#007FC5"/>
<stop offset="1" stop-color="#296DFF"/>
</radialGradient>
<radialGradient id="paint8_radial_227_307" cx="0" cy="0" r="1" gradientUnits="userSpaceOnUse" gradientTransform="translate(22.4904 26.2647) scale(4.49683 4.45131)">
<stop stop-color="white"/>
<stop offset="0.6043" stop-color="#007FC5"/>
<stop offset="1" stop-color="#296DFF"/>
</radialGradient>
<radialGradient id="paint9_radial_227_307" cx="0" cy="0" r="1" gradientUnits="userSpaceOnUse" gradientTransform="translate(22.4904 26.2647) scale(4.49683 4.45131)">
<stop stop-color="white"/>
<stop offset="0.6043" stop-color="#007FC5"/>
<stop offset="1" stop-color="#296DFF"/>
</radialGradient>
<radialGradient id="paint10_radial_227_307" cx="0" cy="0" r="1" gradientUnits="userSpaceOnUse" gradientTransform="translate(20.2888 45.3331) scale(16.2444 16.0799)">
<stop stop-color="white"/>
<stop offset="0.6043" stop-color="#007FC5"/>
<stop offset="1" stop-color="#2564DE"/>
</radialGradient>
</defs>
</svg>
