<svg width="512" height="512" viewBox="0 0 512 512" fill="none" xmlns="http://www.w3.org/2000/svg">
<circle cx="256" cy="256" r="256" fill="white"/>
<path d="M406.655 181.728C405.277 166.986 401.493 152.661 395.357 138.998C387.741 122.035 376.836 106.802 362.944 93.7208C349.055 80.64 332.882 70.3707 314.868 63.1956C296.22 55.768 276.413 52 255.996 52C235.578 52 215.769 55.768 197.12 63.1956C179.109 70.3707 162.934 80.64 149.044 93.7208C135.157 106.802 124.251 122.035 116.632 138.998C111.192 151.112 107.601 163.746 105.896 176.731C106.912 176.572 107.941 176.494 108.976 176.494C110.817 176.494 112.628 176.738 114.375 177.228C123.374 111.18 183.456 59.9725 255.996 59.9725C330.304 59.9725 391.538 113.709 398.181 182.086C392.846 183.944 389.032 188.784 389.032 194.445C389.032 200.106 392.846 204.944 398.181 206.802C398.449 206.895 398.722 206.981 398.999 207.059L399.055 207.074C399.149 207.099 399.242 207.125 399.336 207.15C399.433 207.175 399.529 207.2 399.628 207.221C399.926 207.291 400.226 207.352 400.526 207.402C400.628 207.42 400.727 207.438 400.829 207.45C400.931 207.468 401.033 207.48 401.137 207.493C401.336 207.518 401.534 207.541 401.735 207.559C401.751 207.559 401.764 207.559 401.781 207.561C401.877 207.569 401.971 207.576 402.067 207.581C402.145 207.586 402.225 207.591 402.303 207.594C402.351 207.596 402.397 207.599 402.445 207.602C402.525 207.604 402.608 207.607 402.691 207.609H402.7C402.804 207.609 402.909 207.612 403.013 207.612C403.11 207.612 403.203 207.609 403.297 207.609C403.399 207.607 403.498 207.604 403.597 207.602C403.68 207.596 403.761 207.594 403.844 207.589C404.326 207.564 404.803 207.513 405.275 207.44L405.323 207.432C405.773 207.362 406.221 207.268 406.655 207.16C412.604 205.646 416.996 200.52 416.996 194.445C416.996 188.37 412.604 183.242 406.655 181.728ZM407.204 197.822C406.191 198.935 404.688 199.642 403.013 199.642C401.29 199.642 399.749 198.895 398.739 197.726C397.962 196.83 397.495 195.687 397.495 194.445C397.495 193.204 397.962 192.06 398.739 191.164C399.749 189.996 401.29 189.246 403.013 189.246C404.688 189.246 406.191 189.953 407.204 191.066C408.032 191.975 408.531 193.156 408.531 194.445C408.531 195.735 408.032 196.914 407.204 197.822Z" fill="url(#paint0_radial_516_774)"/>
<path d="M406.655 181.728C405.277 166.986 401.493 152.661 395.357 138.998C387.741 122.035 376.836 106.802 362.944 93.7208C349.055 80.64 332.882 70.3707 314.868 63.1956C296.22 55.768 276.413 52 255.996 52C235.578 52 215.769 55.768 197.12 63.1956C179.109 70.3707 162.934 80.64 149.044 93.7208C135.157 106.802 124.251 122.035 116.632 138.998C111.192 151.112 107.601 163.746 105.896 176.731C106.912 176.572 107.941 176.494 108.976 176.494C110.817 176.494 112.628 176.738 114.375 177.228C123.374 111.18 183.456 59.9725 255.996 59.9725C330.304 59.9725 391.538 113.709 398.181 182.086C392.846 183.944 389.032 188.784 389.032 194.445C389.032 200.106 392.846 204.944 398.181 206.802C398.449 206.895 398.722 206.981 398.999 207.059L399.055 207.074C399.149 207.099 399.242 207.125 399.336 207.15C399.433 207.175 399.529 207.2 399.628 207.221C399.926 207.291 400.226 207.352 400.526 207.402C400.628 207.42 400.727 207.438 400.829 207.45C400.931 207.468 401.033 207.48 401.137 207.493C401.336 207.518 401.534 207.541 401.735 207.559C401.751 207.559 401.764 207.559 401.781 207.561C401.877 207.569 401.971 207.576 402.067 207.581C402.145 207.586 402.225 207.591 402.303 207.594C402.351 207.596 402.397 207.599 402.445 207.602C402.525 207.604 402.608 207.607 402.691 207.609H402.7C402.804 207.609 402.909 207.612 403.013 207.612C403.11 207.612 403.203 207.609 403.297 207.609C403.399 207.607 403.498 207.604 403.597 207.602C403.68 207.596 403.761 207.594 403.844 207.589C404.326 207.564 404.803 207.513 405.275 207.44L405.323 207.432C405.773 207.362 406.221 207.268 406.655 207.16C412.604 205.646 416.996 200.52 416.996 194.445C416.996 188.37 412.604 183.242 406.655 181.728ZM407.204 197.822C406.191 198.935 404.688 199.642 403.013 199.642C401.29 199.642 399.749 198.895 398.739 197.726C397.962 196.83 397.495 195.687 397.495 194.445C397.495 193.204 397.962 192.06 398.739 191.164C399.749 189.996 401.29 189.246 403.013 189.246C404.688 189.246 406.191 189.953 407.204 191.066C408.032 191.975 408.531 193.156 408.531 194.445C408.531 195.735 408.032 196.914 407.204 197.822Z" fill="url(#paint1_radial_516_774)"/>
<path d="M267.58 95.2856C267.578 95.2403 267.578 95.1923 267.575 95.1468C267.572 95.066 267.57 94.9853 267.564 94.9045C267.559 94.8465 267.554 94.7883 267.551 94.7328C267.546 94.6773 267.54 94.6242 267.537 94.5688C267.513 94.3467 267.486 94.1272 267.449 93.9076L267.425 93.7638C267.368 93.4358 267.294 93.1126 267.205 92.7947C265.903 88.1132 261.371 84.6504 255.998 84.6504C250.625 84.6504 246.094 88.113 244.789 92.7947C234.094 93.8218 223.699 96.328 213.77 100.285C200.85 105.429 189.244 112.798 179.275 122.187C169.306 131.575 161.484 142.506 156.017 154.671C150.365 167.262 147.498 180.643 147.498 194.443C147.498 201.908 148.337 209.253 150.006 216.413C150.708 219.446 151.563 222.45 152.566 225.412C153.568 228.385 154.72 231.321 156.017 234.213C159.562 242.102 164.097 249.469 169.569 256.235C171.021 258.037 172.546 259.799 174.133 261.513C175.778 263.289 177.493 265.018 179.275 266.697C189.244 276.085 200.85 283.454 213.77 288.601C222.332 292.013 231.239 294.345 240.386 295.581C240.265 294.837 240.203 294.082 240.203 293.323C240.203 291.839 240.437 290.38 240.895 288.977C232.512 287.803 224.35 285.645 216.5 282.518C204.417 277.705 193.561 270.81 184.235 262.025C182.252 260.157 180.36 258.227 178.565 256.233C177.016 254.519 175.539 252.76 174.135 250.958C169.47 244.984 165.571 238.523 162.478 231.641C160.787 227.875 159.361 224.034 158.209 220.127C157.33 217.159 156.606 214.154 156.041 211.117C155.023 205.656 154.511 200.086 154.511 194.443C154.511 181.531 157.191 169.016 162.478 157.244C167.588 145.865 174.907 135.643 184.235 126.858C193.561 118.075 204.417 111.18 216.5 106.368C225.673 102.713 235.272 100.381 245.153 99.3993C246.804 103.528 251.043 106.473 255.998 106.473C260.953 106.473 265.192 103.528 266.843 99.3993C266.905 99.2504 266.961 99.099 267.012 98.9475C267.034 98.892 267.052 98.8364 267.068 98.7784C267.074 98.7684 267.079 98.7582 267.079 98.7456C267.101 98.6825 267.119 98.617 267.141 98.5512C267.159 98.4882 267.178 98.4226 267.197 98.3569C267.216 98.2938 267.232 98.2307 267.248 98.1676C267.267 98.0995 267.283 98.0339 267.299 97.9682C267.331 97.8394 267.358 97.7083 267.385 97.5795C267.39 97.5518 267.395 97.5264 267.401 97.4987C267.414 97.4331 267.425 97.365 267.438 97.2968C267.449 97.2237 267.462 97.1504 267.473 97.0747C267.476 97.062 267.476 97.0494 267.479 97.0343C267.489 96.9661 267.497 96.8981 267.505 96.8273C267.508 96.8095 267.511 96.7919 267.513 96.7742C267.532 96.6227 267.546 96.4739 267.556 96.32C267.559 96.3149 267.559 96.3099 267.556 96.3048C267.562 96.2342 267.567 96.166 267.57 96.0979C267.575 95.9994 267.578 95.901 267.58 95.8026C267.583 95.7218 267.583 95.6411 267.583 95.5603C267.583 95.4698 267.583 95.3789 267.58 95.2856ZM258.879 98.9021C258.091 99.5054 257.089 99.8688 255.998 99.8688C254.907 99.8688 253.905 99.5054 253.117 98.9021C252.085 98.1123 251.426 96.9084 251.426 95.5606C251.426 94.2583 252.043 93.0847 253.021 92.2948C253.819 91.6462 254.862 91.2551 255.998 91.2551C257.134 91.2551 258.174 91.6462 258.975 92.2948C259.953 93.0847 260.57 94.2583 260.57 95.5606C260.57 96.9084 259.911 98.1123 258.879 98.9021Z" fill="url(#paint2_radial_516_774)"/>
<path d="M333.434 256.237C331.636 258.231 329.746 260.162 327.763 262.029C318.435 270.815 307.579 277.71 295.499 282.523C286.323 286.177 276.727 288.509 266.846 289.491C265.195 285.362 260.956 282.417 256.001 282.417C252.732 282.417 249.776 283.699 247.667 285.756C246.579 286.816 245.718 288.085 245.156 289.491C244.676 290.685 244.416 291.977 244.416 293.327C244.416 294.284 244.545 295.212 244.791 296.096C245.228 297.663 246.027 299.091 247.096 300.3C249.221 302.706 252.426 304.24 256.001 304.24C261.374 304.24 265.906 300.775 267.208 296.096C277.903 295.069 288.298 292.562 298.229 288.605C311.149 283.459 322.752 276.09 332.721 266.701C334.506 265.02 336.221 263.291 337.864 261.515C336.457 259.71 334.98 257.951 333.434 256.237ZM258.978 296.593C258.177 297.241 257.137 297.635 256.001 297.635C254.865 297.635 253.822 297.241 253.024 296.593C252.045 295.803 251.429 294.632 251.429 293.327C251.429 291.982 252.088 290.778 253.117 289.988C253.905 289.382 254.907 289.021 256.001 289.021C257.094 289.021 258.096 289.382 258.884 289.988C259.913 290.778 260.573 291.982 260.573 293.327C260.572 294.632 259.956 295.803 258.978 296.593Z" fill="url(#paint3_radial_516_774)"/>
<path d="M361.993 296.06C361.291 293.026 360.436 290.023 359.433 287.06C358.431 284.087 357.279 281.152 355.979 278.26C352.439 270.37 347.902 263.003 342.43 256.239C340.975 254.437 339.453 252.676 337.863 250.962C336.221 249.185 334.506 247.457 332.721 245.776C322.752 236.387 311.148 229.018 298.229 223.872C289.667 220.462 280.759 218.128 271.61 216.891C271.734 217.638 271.795 218.393 271.795 219.15C271.795 220.634 271.565 222.093 271.104 223.496C279.486 224.669 287.649 226.827 295.498 229.954C307.582 234.767 318.435 241.662 327.763 250.445C329.744 252.312 331.636 254.243 333.434 256.237C334.98 257.951 336.456 259.71 337.863 261.514C342.529 267.488 346.428 273.949 349.521 280.834C351.212 284.599 352.637 288.438 353.79 292.345C354.669 295.31 355.392 298.316 355.958 301.355C356.976 306.819 357.488 312.384 357.488 318.029C357.488 330.941 354.808 343.457 349.521 355.228C344.41 366.607 337.089 376.831 327.763 385.614C318.435 394.399 307.582 401.292 295.499 406.105C286.325 409.759 276.727 412.091 266.846 413.073C265.195 408.944 260.956 405.999 256.001 405.999C252.734 405.999 249.776 407.281 247.669 409.338C246.579 410.4 245.718 411.667 245.156 413.073C244.676 414.269 244.416 415.562 244.416 416.912C244.416 417.866 244.545 418.795 244.794 419.678C245.228 421.245 246.027 422.676 247.099 423.885C249.224 426.29 252.426 427.822 256.001 427.822C261.374 427.822 265.906 424.359 267.208 419.678C277.906 418.653 288.301 416.144 298.229 412.19C311.149 407.044 322.752 399.674 332.721 390.286C342.69 380.897 350.518 369.967 355.979 357.802C361.634 345.211 364.501 331.83 364.501 318.029C364.501 310.564 363.662 303.222 361.993 296.06ZM258.978 420.177C258.179 420.826 257.14 421.217 256.001 421.217C254.864 421.217 253.822 420.826 253.023 420.177C252.048 419.385 251.429 418.216 251.429 416.912C251.429 415.566 252.088 414.36 253.12 413.573C253.905 412.967 254.91 412.606 256.001 412.606C257.094 412.606 258.096 412.967 258.884 413.573C259.916 414.363 260.575 415.566 260.575 416.912C260.575 418.216 259.956 419.385 258.978 420.177Z" fill="url(#paint4_radial_516_774)"/>
<path d="M150.002 296.059C151.969 297.881 153.981 299.645 156.04 301.354L150.002 296.059Z" fill="url(#paint5_radial_516_774)"/>
<path d="M353.79 292.342C328.219 315.011 293.802 328.917 256.001 328.917C218.199 328.917 183.78 315.011 158.211 292.342C156.279 290.631 154.395 288.867 152.568 287.057C143.328 277.909 135.439 267.538 129.203 256.237C127.587 253.307 126.08 250.316 124.695 247.265C118.947 234.648 115.195 221.043 113.812 206.801C119.15 204.943 122.964 200.105 122.964 194.444C122.964 190.707 121.302 187.327 118.636 184.93C117.267 183.693 115.627 182.716 113.812 182.085C112.306 181.563 110.68 181.275 108.981 181.275C107.721 181.275 106.502 181.434 105.341 181.727C103.35 182.234 101.533 183.146 99.9979 184.36C96.9429 186.78 95 190.402 95 194.445C95 200.519 99.3896 205.645 105.341 207.159C106.716 221.901 110.5 236.226 116.637 249.89C117.599 252.032 118.615 254.15 119.684 256.237C121.244 259.288 122.913 262.279 124.692 265.207C131.33 276.122 139.482 286.156 149.049 295.166C149.365 295.467 149.684 295.762 150.006 296.06L156.044 301.355C168.277 311.523 182.059 319.692 197.125 325.692C215.774 333.122 235.583 336.89 256.001 336.89C276.418 336.89 296.224 333.122 314.873 325.692C329.942 319.69 343.724 311.523 355.958 301.352C355.392 298.313 354.669 295.308 353.79 292.342ZM108.98 199.641C107.308 199.641 105.805 198.934 104.792 197.821C103.964 196.913 103.463 195.734 103.463 194.444C103.463 193.155 103.964 191.974 104.792 191.065C105.805 189.952 107.308 189.245 108.98 189.245C110.704 189.245 112.245 189.995 113.255 191.163C114.035 192.059 114.498 193.203 114.498 194.444C114.498 195.686 114.035 196.829 113.255 197.725C112.245 198.894 110.704 199.641 108.98 199.641Z" fill="url(#paint6_radial_516_774)"/>
<path d="M406.661 305.314C405.286 290.572 401.5 276.247 395.363 262.584C394.401 260.438 393.385 258.323 392.319 256.236C390.759 253.182 389.087 250.192 387.307 247.264C380.672 236.349 372.52 226.317 362.951 217.307C362.634 217.009 362.315 216.711 361.994 216.416C360.027 214.594 358.017 212.829 355.959 211.121C343.728 200.95 329.946 192.783 314.877 186.782C296.229 179.351 276.419 175.586 256.002 175.586C235.584 175.586 215.775 179.351 197.127 186.782C182.061 192.783 168.278 200.95 156.045 211.121C156.61 214.157 157.334 217.163 158.213 220.131C183.781 197.462 218.201 183.556 256.002 183.556C293.806 183.556 328.223 197.462 353.791 220.131C355.723 221.842 357.607 223.606 359.435 225.416C368.675 234.565 376.564 244.932 382.8 256.234C384.416 259.164 385.922 262.157 387.307 265.208C393.056 277.825 396.807 291.43 398.19 305.67C392.855 307.527 389.039 312.368 389.039 318.029C389.039 323.692 392.855 328.53 398.19 330.388C398.458 330.479 398.729 330.564 399.005 330.643L399.064 330.66C399.155 330.686 399.249 330.711 399.343 330.733C399.439 330.761 399.538 330.784 399.635 330.807C399.932 330.877 400.232 330.938 400.535 330.988C400.634 331.006 400.736 331.021 400.838 331.036C400.94 331.052 401.039 331.067 401.143 331.079C401.342 331.105 401.54 331.125 401.744 331.142C401.757 331.145 401.771 331.145 401.787 331.145C401.883 331.155 401.977 331.163 402.073 331.168C402.151 331.17 402.231 331.175 402.309 331.18C402.357 331.183 402.406 331.185 402.451 331.185C402.534 331.188 402.617 331.193 402.698 331.193H402.706C402.81 331.195 402.915 331.198 403.019 331.198C403.116 331.198 403.21 331.195 403.306 331.193C403.405 331.193 403.504 331.188 403.603 331.185C403.686 331.183 403.77 331.178 403.853 331.175C404.332 331.147 404.809 331.097 405.281 331.024L405.332 331.016C405.782 330.945 406.227 330.854 406.661 330.744C412.61 329.232 417.002 324.103 417.002 318.029C417.002 311.954 412.61 306.826 406.661 305.314ZM407.211 321.408C406.198 322.519 404.694 323.225 403.019 323.225C401.296 323.225 399.758 322.478 398.748 321.31C397.968 320.416 397.502 319.273 397.502 318.029C397.502 316.787 397.968 315.644 398.748 314.748C399.758 313.579 401.296 312.832 403.019 312.832C404.694 312.832 406.198 313.539 407.211 314.652C408.039 315.56 408.54 316.742 408.54 318.029C408.54 319.318 408.039 320.5 407.211 321.408Z" fill="url(#paint7_radial_516_774)"/>
<path d="M267.584 218.875C267.584 218.83 267.581 218.782 267.581 218.734C267.578 218.656 267.573 218.573 267.568 218.492C267.562 218.436 267.559 218.378 267.554 218.32C267.551 218.267 267.546 218.212 267.541 218.159C267.519 217.936 267.49 217.714 267.452 217.497L267.431 217.353C267.372 217.025 267.297 216.7 267.208 216.382C265.906 211.7 261.375 208.237 256.002 208.237C250.629 208.237 246.097 211.7 244.795 216.382C234.097 217.409 223.702 219.918 213.773 223.872C200.854 229.018 189.25 236.388 179.281 245.776C177.496 247.457 175.781 249.186 174.139 250.963C175.543 252.765 177.02 254.524 178.568 256.237C180.366 254.244 182.258 252.313 184.239 250.445C193.567 241.663 204.42 234.768 216.504 229.955C225.677 226.303 235.279 223.968 245.157 222.987C246.807 227.115 251.047 230.061 256.002 230.061C260.957 230.061 265.196 227.115 266.847 222.987C266.908 222.838 266.965 222.689 267.019 222.537V222.535C267.037 222.479 267.056 222.424 267.072 222.368C267.077 222.358 267.083 222.345 267.083 222.333C267.104 222.27 267.123 222.207 267.144 222.141C267.166 222.075 267.182 222.012 267.201 221.947C267.219 221.884 267.236 221.82 267.254 221.757C267.27 221.689 267.289 221.624 267.303 221.558C267.335 221.427 267.362 221.298 267.388 221.167C267.394 221.141 267.402 221.114 267.404 221.089C267.418 221.02 267.431 220.952 267.442 220.887C267.453 220.811 267.466 220.738 267.477 220.665C267.479 220.649 267.479 220.637 267.482 220.624C267.493 220.553 267.501 220.485 267.509 220.415C267.512 220.397 267.517 220.382 267.517 220.364C267.536 220.213 267.549 220.061 267.56 219.907C267.562 219.902 267.562 219.897 267.56 219.892C267.565 219.824 267.57 219.756 267.573 219.685C267.581 219.587 267.584 219.488 267.587 219.39C267.587 219.312 267.589 219.231 267.589 219.15C267.589 219.059 267.586 218.966 267.584 218.875ZM258.882 222.489C258.097 223.095 257.092 223.456 256.001 223.456C254.911 223.456 253.908 223.095 253.12 222.489C252.089 221.702 251.429 220.496 251.429 219.15C251.429 217.846 252.049 216.675 253.024 215.885C253.823 215.236 254.865 214.842 256.001 214.842C257.14 214.842 258.18 215.236 258.978 215.885C259.957 216.675 260.576 217.846 260.576 219.15C260.576 220.495 259.914 221.702 258.882 222.489Z" fill="url(#paint8_radial_516_774)"/>
<path d="M267.584 218.875C267.584 218.83 267.581 218.782 267.581 218.734C267.578 218.656 267.573 218.573 267.568 218.492C267.562 218.436 267.559 218.378 267.554 218.32C267.551 218.267 267.546 218.212 267.541 218.159C267.519 217.936 267.49 217.714 267.452 217.497L267.431 217.353C267.372 217.025 267.297 216.7 267.208 216.382C265.906 211.7 261.375 208.237 256.002 208.237C250.629 208.237 246.097 211.7 244.795 216.382C234.097 217.409 223.702 219.918 213.773 223.872C200.854 229.018 189.25 236.388 179.281 245.776C177.496 247.457 175.781 249.186 174.139 250.963C175.543 252.765 177.02 254.524 178.568 256.237C180.366 254.244 182.258 252.313 184.239 250.445C193.567 241.663 204.42 234.768 216.504 229.955C225.677 226.303 235.279 223.968 245.157 222.987C246.807 227.115 251.047 230.061 256.002 230.061C260.957 230.061 265.196 227.115 266.847 222.987C266.908 222.838 266.965 222.689 267.019 222.537V222.535C267.037 222.479 267.056 222.424 267.072 222.368C267.077 222.358 267.083 222.345 267.083 222.333C267.104 222.27 267.123 222.207 267.144 222.141C267.166 222.075 267.182 222.012 267.201 221.947C267.219 221.884 267.236 221.82 267.254 221.757C267.27 221.689 267.289 221.624 267.303 221.558C267.335 221.427 267.362 221.298 267.388 221.167C267.394 221.141 267.402 221.114 267.404 221.089C267.418 221.02 267.431 220.952 267.442 220.887C267.453 220.811 267.466 220.738 267.477 220.665C267.479 220.649 267.479 220.637 267.482 220.624C267.493 220.553 267.501 220.485 267.509 220.415C267.512 220.397 267.517 220.382 267.517 220.364C267.536 220.213 267.549 220.061 267.56 219.907C267.562 219.902 267.562 219.897 267.56 219.892C267.565 219.824 267.57 219.756 267.573 219.685C267.581 219.587 267.584 219.488 267.587 219.39C267.587 219.312 267.589 219.231 267.589 219.15C267.589 219.059 267.586 218.966 267.584 218.875ZM258.882 222.489C258.097 223.095 257.092 223.456 256.001 223.456C254.911 223.456 253.908 223.095 253.12 222.489C252.089 221.702 251.429 220.496 251.429 219.15C251.429 217.846 252.049 216.675 253.024 215.885C253.823 215.236 254.865 214.842 256.001 214.842C257.14 214.842 258.18 215.236 258.978 215.885C259.957 216.675 260.576 217.846 260.576 219.15C260.576 220.495 259.914 221.702 258.882 222.489Z" fill="url(#paint9_radial_516_774)"/>
<path d="M403.018 335.98C401.182 335.98 399.371 335.732 397.621 335.245C388.622 401.293 328.543 452.503 256.001 452.503C181.692 452.503 120.458 398.767 113.812 330.387C119.15 328.529 122.964 323.691 122.964 318.028C122.964 314.29 121.302 310.913 118.639 308.513C117.267 307.277 115.627 306.302 113.812 305.669C112.309 305.146 110.68 304.861 108.983 304.861C107.724 304.861 106.502 305.018 105.341 305.313C103.35 305.818 101.533 306.729 99.9979 307.945C96.9455 310.363 95 313.987 95 318.028C95 324.103 99.3922 329.231 105.341 330.743C106.716 345.484 110.5 359.812 116.64 373.476C124.258 390.438 135.162 405.672 149.052 418.753C162.939 431.833 179.117 442.103 197.125 449.278C215.774 456.705 235.583 460.473 256.001 460.473C276.418 460.473 296.227 456.705 314.876 449.278C332.887 442.103 349.062 431.833 362.949 418.753C376.841 405.672 387.745 390.438 395.361 373.476C400.804 361.362 404.395 348.727 406.097 335.745C405.081 335.901 404.052 335.98 403.018 335.98ZM108.983 323.224C107.308 323.224 105.805 322.518 104.792 321.407C103.964 320.499 103.463 319.317 103.463 318.028C103.463 316.741 103.964 315.56 104.792 314.651C105.805 313.538 107.308 312.831 108.983 312.831C110.706 312.831 112.245 313.578 113.255 314.747C114.035 315.643 114.501 316.786 114.501 318.028C114.501 319.272 114.035 320.415 113.255 321.309C112.245 322.477 110.706 323.224 108.983 323.224Z" fill="url(#paint10_radial_516_774)"/>
<defs>
<radialGradient id="paint0_radial_516_774" cx="0" cy="0" r="1" gradientUnits="userSpaceOnUse" gradientTransform="translate(94.7379 126.143) scale(125.075 117.793)">
<stop stop-color="white"/>
<stop offset="0.4866" stop-color="#4285F4"/>
<stop offset="1" stop-color="#296DFF"/>
</radialGradient>
<radialGradient id="paint1_radial_516_774" cx="0" cy="0" r="1" gradientUnits="userSpaceOnUse" gradientTransform="translate(94.7379 126.143) scale(125.075 117.793)">
<stop stop-color="white"/>
<stop offset="0.4866" stop-color="#4285F4"/>
<stop offset="1" stop-color="#2564DE"/>
</radialGradient>
<radialGradient id="paint2_radial_516_774" cx="0" cy="0" r="1" gradientUnits="userSpaceOnUse" gradientTransform="translate(207.54 190.116) scale(89.8494 84.6183)">
<stop stop-color="white"/>
<stop offset="0.4866" stop-color="#4285F4"/>
<stop offset="1" stop-color="#296DFF"/>
</radialGradient>
<radialGradient id="paint3_radial_516_774" cx="0" cy="0" r="1" gradientUnits="userSpaceOnUse" gradientTransform="translate(292.069 250.242) scale(45.1009 42.4751)">
<stop stop-color="white"/>
<stop offset="0.4866" stop-color="#4285F4"/>
<stop offset="1" stop-color="#296DFF"/>
</radialGradient>
<radialGradient id="paint4_radial_516_774" cx="0" cy="0" r="1" gradientUnits="userSpaceOnUse" gradientTransform="translate(304.458 322.357) scale(89.8495 84.6183)">
<stop stop-color="white"/>
<stop offset="0.6043" stop-color="#4285F4"/>
<stop offset="1" stop-color="#296DFF"/>
</radialGradient>
<radialGradient id="paint5_radial_516_774" cx="0" cy="0" r="1" gradientUnits="userSpaceOnUse" gradientTransform="translate(153.021 298.707) scale(2.91682 2.74701)">
<stop stop-color="white"/>
<stop offset="0.4866" stop-color="#4285F4"/>
<stop offset="1" stop-color="#296DFF"/>
</radialGradient>
<radialGradient id="paint6_radial_516_774" cx="0" cy="0" r="1" gradientUnits="userSpaceOnUse" gradientTransform="translate(225.479 259.082) scale(109.202 102.845)">
<stop stop-color="white"/>
<stop offset="0.4866" stop-color="#4285F4"/>
<stop offset="1" stop-color="#296DFF"/>
</radialGradient>
<radialGradient id="paint7_radial_516_774" cx="0" cy="0" r="1" gradientUnits="userSpaceOnUse" gradientTransform="translate(286.524 253.392) scale(109.202 102.844)">
<stop stop-color="white"/>
<stop offset="0.6043" stop-color="#007FC5"/>
<stop offset="1" stop-color="#296DFF"/>
</radialGradient>
<radialGradient id="paint8_radial_516_774" cx="0" cy="0" r="1" gradientUnits="userSpaceOnUse" gradientTransform="translate(267.428 243.582) scale(34.4758 32.4686)">
<stop stop-color="white"/>
<stop offset="0.6043" stop-color="#007FC5"/>
<stop offset="1" stop-color="#296DFF"/>
</radialGradient>
<radialGradient id="paint9_radial_516_774" cx="0" cy="0" r="1" gradientUnits="userSpaceOnUse" gradientTransform="translate(267.428 243.582) scale(34.4758 32.4686)">
<stop stop-color="white"/>
<stop offset="0.6043" stop-color="#007FC5"/>
<stop offset="1" stop-color="#296DFF"/>
</radialGradient>
<radialGradient id="paint10_radial_516_774" cx="0" cy="0" r="1" gradientUnits="userSpaceOnUse" gradientTransform="translate(250.548 382.667) scale(124.541 117.29)">
<stop stop-color="white"/>
<stop offset="0.6043" stop-color="#007FC5"/>
<stop offset="1" stop-color="#2564DE"/>
</radialGradient>
</defs>
</svg>
