<svg width="24" height="24" viewBox="0 0 24 24" fill="none" xmlns="http://www.w3.org/2000/svg">
<path d="M24 7.79996C24 11.7119 21.1201 14.9399 17.3761 15.5039V15.4319C17.0041 10.7759 13.2241 6.99597 8.53209 6.62397H8.49609C9.06009 2.87999 12.2881 0 16.2001 0C20.5081 0 24 3.49198 24 7.79996Z" fill="#4A4A4A"/>
<path d="M15.5759 15.5759C15.2759 11.7719 12.2279 8.7239 8.42396 8.4239C8.21996 8.4119 8.00396 8.3999 7.79996 8.3999C3.49198 8.3999 0 11.8919 0 16.1999C0 20.5078 3.49198 23.9998 7.79996 23.9998C12.1079 23.9998 15.5999 20.5078 15.5999 16.1999C15.5999 15.9959 15.5879 15.7799 15.5759 15.5759ZM8.85596 17.2559L7.79996 19.1999L6.74397 17.2559L4.79998 16.1999L6.74397 15.1439L7.79996 13.1999L8.85596 15.1439L10.7999 16.1999L8.85596 17.2559Z" fill="#4A4A4A"/>
</svg>
