<svg width="20" height="20" viewBox="0 0 20 20" fill="none" xmlns="http://www.w3.org/2000/svg">
<path d="M4.79567 16.9023L3.33317 6.6665H16.6665L15.204 16.9023C15.1472 17.2995 14.9491 17.6628 14.646 17.9257C14.3429 18.1885 13.9552 18.3332 13.554 18.3332H6.44567C6.04448 18.3332 5.65675 18.1885 5.35365 17.9257C5.05056 17.6628 4.85244 17.2995 4.79567 16.9023ZM17.4998 3.33317H13.3332V2.49984C13.3332 2.27882 13.2454 2.06686 13.0891 1.91058C12.9328 1.7543 12.7209 1.6665 12.4998 1.6665H7.49984C7.27882 1.6665 7.06686 1.7543 6.91058 1.91058C6.7543 2.06686 6.6665 2.27882 6.6665 2.49984V3.33317H2.49984C2.27882 3.33317 2.06686 3.42097 1.91058 3.57725C1.7543 3.73353 1.6665 3.94549 1.6665 4.1665C1.6665 4.38752 1.7543 4.59948 1.91058 4.75576C2.06686 4.91204 2.27882 4.99984 2.49984 4.99984H17.4998C17.7208 4.99984 17.9328 4.91204 18.0891 4.75576C18.2454 4.59948 18.3332 4.38752 18.3332 4.1665C18.3332 3.94549 18.2454 3.73353 18.0891 3.57725C17.9328 3.42097 17.7208 3.33317 17.4998 3.33317Z" fill="#FF968D"/>
</svg>
