<svg width="20" height="20" viewBox="0 0 20 20" fill="none" xmlns="http://www.w3.org/2000/svg">
<g clip-path="url(#clip0_717_798)">
<path d="M3.24984 10.0002C3.24984 8.57516 4.40817 7.41683 5.83317 7.41683H9.1665V5.8335H5.83317C3.53317 5.8335 1.6665 7.70016 1.6665 10.0002C1.6665 12.3002 3.53317 14.1668 5.83317 14.1668H9.1665V12.5835H5.83317C4.40817 12.5835 3.24984 11.4252 3.24984 10.0002ZM6.6665 10.8335H13.3332V9.16683H6.6665V10.8335ZM14.1665 5.8335H10.8332V7.41683H14.1665C15.5915 7.41683 16.7498 8.57516 16.7498 10.0002C16.7498 11.4252 15.5915 12.5835 14.1665 12.5835H10.8332V14.1668H14.1665C16.4665 14.1668 18.3332 12.3002 18.3332 10.0002C18.3332 7.70016 16.4665 5.8335 14.1665 5.8335Z" fill="#8AAFFF"/>
</g>
<defs>
<clipPath id="clip0_717_798">
<rect width="20" height="20" fill="white"/>
</clipPath>
</defs>
</svg>
