<svg width="24" height="39" viewBox="0 0 24 39" fill="none" xmlns="http://www.w3.org/2000/svg">
<path d="M8.46394 7.93502C7.66825 7.93502 7.02858 7.28754 7.02858 6.49966C7.02858 5.71177 7.67605 5.0643 8.46394 5.0643C9.25963 5.0643 9.8993 5.71177 9.8993 6.49966C9.8993 7.28754 9.25963 7.93502 8.46394 7.93502ZM8.46394 8.85552C11.3347 8.85552 13.6671 11.188 13.6671 14.0587C13.6671 15.6423 12.9572 17.0542 11.8417 18.0137C11.3347 17.7641 10.7652 17.6237 10.1333 17.6237C10.0007 17.6237 9.86029 17.6315 9.75108 17.6393C9.44685 17.6627 8.40153 17.8343 7.62925 18.9576C7.58244 19.0278 7.53564 19.0981 7.49663 19.1683C5.08616 18.7158 3.26076 16.6018 3.26076 14.0587C3.26076 11.188 5.58542 8.85552 8.46394 8.85552ZM6.67754 15.1898C6.70094 15.6345 6.84136 15.9855 7.11439 16.2273C7.40302 16.4926 7.76966 16.6486 8.19871 16.6954V17.2727C8.19871 17.3507 8.26112 17.4131 8.33912 17.4131H8.85398C8.93199 17.4131 8.9944 17.3507 8.9944 17.2727V16.6798C9.34544 16.6174 9.62627 16.477 9.84469 16.2663C10.1021 16.0167 10.2347 15.6891 10.2347 15.2756C10.2347 14.8466 10.1099 14.5111 9.85249 14.2849C9.59506 14.0509 9.19722 13.8247 8.65116 13.5906C8.41713 13.4892 8.25331 13.3878 8.16751 13.2864C8.0817 13.185 8.03489 13.0524 8.03489 12.8886C8.03489 12.7247 8.0739 12.5999 8.1519 12.4907C8.22991 12.3893 8.35473 12.3347 8.52635 12.3347C8.69016 12.3347 8.82278 12.3971 8.92419 12.5219C9.0022 12.6233 9.049 12.7638 9.0646 12.951C9.07241 13.0368 9.15042 13.0992 9.22842 13.0914L10.0709 13.0758C10.1645 13.0758 10.2425 12.9978 10.2347 12.9042C10.2113 12.5375 10.0943 12.2255 9.8759 11.9759C9.64967 11.7184 9.35324 11.5468 8.9866 11.4766V10.8447C8.9866 10.7667 8.92419 10.7043 8.84618 10.7043H8.33132C8.25332 10.7043 8.19091 10.7667 8.19091 10.8447V11.461C7.80087 11.5156 7.48103 11.6638 7.2392 11.8979C6.97397 12.1553 6.83356 12.4829 6.83356 12.8808C6.83356 13.3176 6.95837 13.653 7.2158 13.8793C7.46543 14.1055 7.87107 14.3317 8.42493 14.5501C8.65116 14.6516 8.81498 14.753 8.90079 14.8544C8.9866 14.9558 9.0334 15.104 9.0334 15.2834C9.0334 15.4472 8.9866 15.5721 8.90079 15.6735C8.81498 15.7749 8.68236 15.8217 8.51854 15.8217C8.31572 15.8217 8.1519 15.7593 8.02709 15.6267C7.92568 15.5253 7.86327 15.3614 7.83987 15.143C7.83207 15.0572 7.75406 14.9948 7.67605 14.9948L6.83356 15.0104C6.74775 15.0182 6.67754 15.0962 6.67754 15.1898ZM23.0438 21.6723C22.6147 21.3369 18.1292 16.3599 16.9279 15.6579V2.74744C16.9279 1.43689 15.867 0.375977 14.5564 0.375977H2.37146C1.06092 0.375977 0 1.43689 0 2.74744V25.3465C0 26.6571 1.06092 27.718 2.37146 27.718H6.2797H7.67605L7.45763 25.8614C7.38742 25.799 7.34061 25.76 7.27041 25.6976H6.49032H4.93015C5.00035 25.409 5.02376 25.1047 4.98475 24.7927C4.85994 23.8098 4.11106 22.9907 3.15155 22.7723C2.75371 22.6786 2.37926 22.6943 2.02822 22.7801V5.17351C2.42607 5.25152 2.86292 5.22811 3.30757 5.0565C3.78342 4.87708 4.18126 4.53384 4.46209 4.11259C4.85994 3.50412 4.92235 2.91906 4.82873 2.3886H12.1069C12.0133 2.91126 12.0757 3.48072 12.458 4.08919C12.731 4.52604 13.1367 4.86928 13.6125 5.0487C14.065 5.22031 14.5018 5.24372 14.9075 5.16571V22.3354V27.2656C14.0806 26.6571 13.1523 24.7537 13.1523 24.7537C13.1523 24.7537 12.6998 19.6831 10.1333 19.6831C10.0631 19.6831 10.0007 19.6831 9.9305 19.6909C9.9305 19.6909 7.98809 19.8547 9.59506 25.4168L10.3127 31.5872C10.3127 31.5872 11.1162 34.9416 13.3317 37.2585V37.9527C13.3317 38.3194 13.6281 38.6236 14.0026 38.6236H21.2262C21.5694 38.6236 21.8502 38.3662 21.8892 38.0308C22.1467 35.6515 23.1296 26.8833 23.7146 25.3778C23.8238 25.0891 23.9253 24.8005 23.9643 24.4963C24.0579 23.7162 24.0345 22.4368 23.0438 21.6723Z" fill="#4A4A4A"/>
</svg>
