<svg width="24" height="25" viewBox="0 0 24 25" fill="none" xmlns="http://www.w3.org/2000/svg">
<path d="M12 0.5C18.6278 0.5 24 5.87225 24 12.5C24 19.1278 18.6278 24.5 12 24.5C5.37225 24.5 0 19.1278 0 12.5C0 5.87225 5.37225 0.5 12 0.5ZM14.514 4.67C14.331 4.58 14.148 4.67 14.103 4.85225C14.0573 4.898 14.0573 4.94375 14.0573 5.0345V5.672L14.0648 5.75C14.1039 5.9043 14.1987 6.03866 14.331 6.12725C17.8965 7.40225 19.725 11.3623 18.399 14.867C17.7135 16.7795 16.2052 18.2353 14.331 18.9185C14.148 19.0093 14.0573 19.1458 14.0573 19.3738V20.0112L14.061 20.0773C14.0681 20.1493 14.0982 20.2171 14.1468 20.2707C14.1955 20.3243 14.26 20.3609 14.331 20.375C14.3767 20.375 14.4682 20.375 14.514 20.33C15.5427 20.0088 16.4977 19.4872 17.3239 18.7954C18.1502 18.1035 18.8315 17.2551 19.3285 16.2989C19.8255 15.3427 20.1285 14.2976 20.22 13.2238C20.3115 12.15 20.1896 11.0688 19.8615 10.0422C19.0395 7.44725 17.028 5.489 14.514 4.67ZM9.669 4.625C9.62325 4.625 9.53175 4.625 9.486 4.67C8.45732 4.99124 7.50235 5.5128 6.67607 6.20463C5.84978 6.89646 5.16851 7.74491 4.67148 8.70112C4.17445 9.65733 3.87148 10.7024 3.78001 11.7762C3.68853 12.85 3.81037 13.9312 4.1385 14.9578C4.9605 17.5077 6.92625 19.4653 9.486 20.2843C9.669 20.375 9.852 20.2843 9.897 20.102C9.94275 20.057 9.94275 20.0105 9.94275 19.9198V19.2822L9.93525 19.2222C9.90375 19.0955 9.786 18.9508 9.669 18.8727C6.1035 17.5977 4.275 13.6377 5.601 10.133C6.2865 8.2205 7.79475 6.76475 9.669 6.0815C9.852 5.99075 9.94275 5.85425 9.94275 5.62625V4.98875L9.939 4.92275C9.93187 4.85073 9.90177 4.78291 9.85316 4.7293C9.80454 4.67569 9.73998 4.63912 9.669 4.625ZM12.3202 6.992H11.634L11.568 6.998C11.418 7.028 11.3085 7.157 11.268 7.3565V8.4035L11.1128 8.4275C9.83175 8.6555 9.02925 9.53975 9.02925 10.634C9.02925 12.1355 9.94275 12.7273 11.8628 12.9552C13.143 13.1825 13.554 13.4563 13.554 14.1845C13.554 14.912 12.9143 15.413 12.0458 15.413C10.857 15.413 10.446 14.9128 10.3088 14.2295C10.2638 14.048 10.1257 13.9565 9.9885 13.9565H9.2115L9.15225 13.9618C9.07829 13.9737 9.01117 14.012 8.96332 14.0697C8.91547 14.1273 8.89013 14.2004 8.892 14.2753V14.3202L8.91675 14.4552C9.13425 15.5233 9.86625 16.2875 11.3145 16.5057V17.5985L11.3205 17.6645C11.3505 17.813 11.4803 17.9225 11.6805 17.9622H12.366L12.432 17.9562C12.582 17.9263 12.6915 17.7973 12.732 17.5985V16.505L12.8873 16.475C14.172 16.2035 15.0173 15.2742 15.0173 14.0922C15.0173 12.4992 14.0573 11.9532 12.1373 11.7253C10.7655 11.543 10.4918 11.1792 10.4918 10.5417C10.4918 9.90425 10.9493 9.49475 11.8628 9.49475C12.6855 9.49475 13.143 9.76775 13.371 10.451C13.3948 10.5171 13.4382 10.5743 13.4954 10.6149C13.5527 10.6555 13.621 10.6776 13.6912 10.6783H14.4225L14.4818 10.6737C14.556 10.6619 14.6234 10.6236 14.6714 10.5657C14.7194 10.5079 14.7448 10.4346 14.7428 10.3595V10.3145L14.715 10.1847C14.6024 9.71856 14.3456 9.29975 13.9813 8.9879C13.6169 8.67605 13.1635 8.48704 12.6855 8.44775V7.3565L12.6795 7.2905C12.6495 7.14125 12.5205 7.03175 12.3202 6.992Z" fill="#4A4A4A"/>
</svg>
