<svg width="20" height="18" viewBox="0 0 20 18" fill="none" xmlns="http://www.w3.org/2000/svg">
<path fill-rule="evenodd" clip-rule="evenodd" d="M18.4107 5.32274C18.3561 5.3193 18.2966 5.31932 18.235 5.31934L18.2196 5.31935H15.8017C13.8088 5.31935 12.1035 6.88808 12.1035 8.9338C12.1035 10.9795 13.8088 12.5483 15.8017 12.5483H18.2196H18.235C18.2966 12.5483 18.3561 12.5484 18.4107 12.5449C19.2202 12.4937 19.9361 11.8603 19.9963 10.9754C20.0003 10.9174 20.0002 10.8549 20.0002 10.7969V10.7812V7.08642V7.07069C20.0002 7.01272 20.0003 6.95017 19.9963 6.89216C19.9361 6.00735 19.2202 5.37386 18.4107 5.32274ZM15.5874 9.89766C16.1004 9.89766 16.5163 9.46614 16.5163 8.9338C16.5163 8.40146 16.1004 7.96994 15.5874 7.96994C15.0743 7.96994 14.6583 8.40146 14.6583 8.9338C14.6583 9.46614 15.0743 9.89766 15.5874 9.89766Z" fill="#777777"/>
<path fill-rule="evenodd" clip-rule="evenodd" d="M18.2341 13.994C18.3779 13.9902 18.4867 14.1233 18.4476 14.2618C18.2542 14.9484 17.947 15.5338 17.4543 16.0266C16.7329 16.7478 15.8182 17.0679 14.6882 17.2199C13.5902 17.3675 12.1872 17.3675 10.4158 17.3675H8.37938C6.60804 17.3675 5.20501 17.3675 4.10697 17.2199C2.97693 17.0679 2.06228 16.7478 1.34096 16.0266C0.619644 15.3052 0.299529 14.3905 0.147605 13.2605C-2.84235e-05 12.1625 -1.88404e-05 10.7595 4.36778e-07 8.98811V8.87938C-1.88404e-05 7.10804 -2.84235e-05 5.70501 0.147605 4.60697C0.299529 3.47693 0.619644 2.56228 1.34096 1.84096C2.06228 1.11964 2.97693 0.799529 4.10697 0.647605C5.20501 0.499972 6.60803 0.499981 8.37938 0.5H10.4158C12.1872 0.499981 13.5902 0.499972 14.6882 0.647605C15.8182 0.799529 16.7329 1.11964 17.4543 1.84096C17.947 2.33376 18.2541 2.91903 18.4476 3.60572C18.4867 3.7441 18.3779 3.87723 18.2341 3.8735L15.8015 3.87351C13.0674 3.87351 10.6575 6.03341 10.6575 8.93374C10.6575 11.8341 13.0674 13.994 15.8015 13.994H18.2341ZM3.61446 4.35543C3.21522 4.35543 2.89157 4.67908 2.89157 5.07832C2.89157 5.47756 3.21522 5.80121 3.61446 5.80121H7.46989C7.86912 5.80121 8.19278 5.47756 8.19278 5.07832C8.19278 4.67908 7.86912 4.35543 7.46989 4.35543H3.61446Z" fill="#777777"/>
</svg>
