<svg width="27" height="25" viewBox="0 0 27 25" fill="none" xmlns="http://www.w3.org/2000/svg">
    <path
        d="M10.3595 0.85744C9.36854 0.857443 8.39986 1.17094 7.57609 1.75825C6.75232 2.34557 6.11049 3.18028 5.73187 4.15673C5.35324 5.13317 5.25483 6.20745 5.4491 7.24356C5.64337 8.27967 6.12159 9.23103 6.82321 9.9772C7.52484 10.7234 8.41832 11.2308 9.39055 11.4353C10.3628 11.6397 11.37 11.532 12.2848 11.1258C13.1996 10.7195 13.9808 10.033 14.5295 9.15312C15.0782 8.27325 15.3697 7.23958 15.3671 6.18297C15.3671 5.48245 15.2375 4.78881 14.9857 4.14178C14.7338 3.49475 14.3648 2.90706 13.8996 2.41235C13.4345 1.91765 12.8823 1.52566 12.2748 1.25884C11.6674 0.992027 11.0165 0.85562 10.3595 0.85744ZM19.1163 11.4808C19.0392 11.4825 18.965 11.5122 18.906 11.565C18.847 11.6179 18.8068 11.6907 18.792 11.7713L18.5585 13.5281C18.1851 13.6967 17.8286 13.9053 17.4947 14.1505L15.9379 13.4866C15.8637 13.4732 15.7874 13.4831 15.7183 13.515C15.6492 13.5469 15.5903 13.5995 15.5487 13.6664L14.2514 15.9626C14.2135 16.032 14.2006 16.1137 14.2149 16.1926C14.2292 16.2714 14.2698 16.342 14.3292 16.3914L15.6266 17.4842C15.5715 17.9434 15.5715 18.4082 15.6266 18.8674L14.3292 19.9602C14.2708 20.0071 14.2306 20.0754 14.2162 20.1519C14.2019 20.2284 14.2144 20.3079 14.2514 20.3752L15.5487 22.6852C15.6266 22.865 15.7952 22.865 15.9379 22.865L17.4947 22.1872C17.8236 22.4449 18.1808 22.6586 18.5585 22.8235L18.792 24.5803C18.8046 24.6609 18.8447 24.7336 18.9045 24.7847C18.9644 24.8357 19.0398 24.8614 19.1163 24.8569H21.6201C21.6922 24.8548 21.7613 24.826 21.8158 24.7756C21.8702 24.7251 21.9065 24.6561 21.9185 24.5803L22.152 22.8235C22.5201 22.6468 22.8719 22.4337 23.2028 22.1872L24.7466 22.865C24.9023 22.865 25.0709 22.865 25.1617 22.6852L26.459 20.3752C26.496 20.3079 26.5086 20.2284 26.4942 20.1519C26.4799 20.0754 26.4396 20.0071 26.3812 19.9602L25.0839 18.8674C25.0969 18.6417 25.0969 18.4153 25.0839 18.1896C25.1026 17.9688 25.1026 17.7465 25.0839 17.5257L26.3812 16.4329C26.4385 16.3819 26.4775 16.3114 26.4916 16.2332C26.5058 16.1551 26.4943 16.0742 26.459 16.0041L25.1617 13.7079C25.0839 13.5281 24.9152 13.5281 24.7596 13.5281L23.2028 14.2473C22.8718 13.997 22.5149 13.7881 22.139 13.6249L21.9055 11.8681C21.8992 11.791 21.8668 11.7189 21.8143 11.6654C21.7617 11.612 21.6927 11.5807 21.6201 11.5777H19.259M10.5022 14.2473C4.97569 14.2473 0.5 16.5989 0.5 19.5452V22.2011H12.6038C12.0577 20.9709 11.7745 19.6268 11.7745 18.2657C11.7745 16.9046 12.0577 15.5606 12.6038 14.3303C11.9055 14.258 11.2037 14.2303 10.5022 14.2473ZM20.3617 16.2254C20.621 16.2024 20.8819 16.237 21.128 16.327C21.3742 16.417 21.6001 16.5604 21.7915 16.7483C21.983 16.9361 22.1358 17.1643 22.2404 17.4183C22.3449 17.6724 22.3989 17.9468 22.3989 18.2242C22.3989 18.5016 22.3449 18.776 22.2404 19.0301C22.1358 19.2841 21.983 19.5123 21.7915 19.7001C21.6001 19.888 21.3742 20.0314 21.128 20.1214C20.8819 20.2114 20.621 20.246 20.3617 20.223C19.8915 20.1813 19.4531 19.9526 19.1336 19.5824C18.814 19.2121 18.6367 18.7273 18.6367 18.2242C18.6367 17.7211 18.814 17.2363 19.1336 16.8661C19.4531 16.4958 19.8915 16.2672 20.3617 16.2254Z"
        fill="currentColor" />
</svg>