<svg width="30" height="30" viewBox="0 0 30 30" fill="none" xmlns="http://www.w3.org/2000/svg">
<circle cx="15" cy="15" r="15" fill="#ECF2FF"/>
<path d="M18.3333 9.3335H11.6666C9.66659 9.3335 8.33325 10.3335 8.33325 12.6668V17.3335C8.33325 19.6668 9.66659 20.6668 11.6666 20.6668H18.3333C20.3333 20.6668 21.6666 19.6668 21.6666 17.3335V12.6668C21.6666 10.3335 20.3333 9.3335 18.3333 9.3335ZM18.6466 13.3935L16.5599 15.0602C16.1199 15.4135 15.5599 15.5868 14.9999 15.5868C14.4399 15.5868 13.8733 15.4135 13.4399 15.0602L11.3533 13.3935C11.1399 13.2202 11.1066 12.9002 11.2733 12.6868C11.4466 12.4735 11.7599 12.4335 11.9733 12.6068L14.0599 14.2735C14.5666 14.6802 15.4266 14.6802 15.9333 14.2735L18.0199 12.6068C18.2333 12.4335 18.5533 12.4668 18.7199 12.6868C18.8933 12.9002 18.8599 13.2202 18.6466 13.3935Z" fill="#0051FF"/>
</svg>
