<svg width="27" height="27" viewBox="0 0 27 27" fill="none" xmlns="http://www.w3.org/2000/svg">
    <g clip-path="url(#clip0_490_721)">
        <path
            d="M4.72208 20.2056L8.95792 15.9698L12.0227 19.0334L16.9746 14.0826L18.917 16.0239V10.6073H13.5003L15.4428 12.5497L12.0227 15.9698L8.959 12.905L3.60083 18.2632C2.98326 16.8765 2.66506 15.3752 2.667 13.8573C2.667 7.87401 7.51709 3.02393 13.5003 3.02393C19.4836 3.02393 24.3337 7.87401 24.3337 13.8573C24.3337 19.8405 19.4836 24.6906 13.5003 24.6906C11.7865 24.6917 10.0969 24.2857 8.57074 23.5059C7.04457 22.7262 5.72547 21.595 4.72208 20.2056Z"
            fill="currentColor" />
    </g>
    <defs>
        <clipPath id="clip0_490_721">
            <rect width="26" height="26" fill="white" transform="translate(0.5 0.857422)" />
        </clipPath>
    </defs>
</svg>