<svg width="24" height="25" viewBox="0 0 24 25" fill="none" xmlns="http://www.w3.org/2000/svg">
<path d="M12 3.10742C10.0716 3.10742 8.18657 3.67925 6.58319 4.75059C4.97982 5.82194 3.73013 7.34468 2.99218 9.12626C2.25422 10.9078 2.06114 12.8682 2.43735 14.7596C2.81355 16.6509 3.74215 18.3882 5.10571 19.7517C6.46928 21.1153 8.20656 22.0439 10.0979 22.4201C11.9892 22.7963 13.9496 22.6032 15.7312 21.8652C17.5127 21.1273 19.0355 19.8776 20.1068 18.2742C21.1782 16.6709 21.75 14.7858 21.75 12.8574C21.7471 10.2725 20.7189 7.79421 18.8911 5.96636C17.0632 4.13852 14.585 3.11035 12 3.10742ZM12.0001 18.8575C11.7776 18.8575 11.56 18.7915 11.375 18.6679C11.19 18.5442 11.0458 18.3685 10.9607 18.163C10.8755 17.9574 10.8533 17.7312 10.8967 17.513C10.9401 17.2948 11.0472 17.0943 11.2046 16.937C11.3619 16.7796 11.5624 16.6725 11.7806 16.6291C11.9988 16.5857 12.225 16.6079 12.4306 16.6931C12.6361 16.7782 12.8118 16.9224 12.9355 17.1074C13.0591 17.2924 13.1251 17.51 13.1251 17.7325C13.1251 18.0308 13.0065 18.317 12.7955 18.528C12.5846 18.7389 12.2984 18.8575 12.0001 18.8575ZM12.75 14.2739V14.3579C12.75 14.5568 12.671 14.7476 12.5303 14.8882C12.3897 15.0289 12.1989 15.1079 12 15.1079C11.8011 15.1079 11.6103 15.0289 11.4697 14.8882C11.329 14.7476 11.25 14.5568 11.25 14.3579V13.6079C11.25 13.409 11.329 13.2182 11.4697 13.0776C11.6103 12.9369 11.8011 12.8579 12 12.8579C12.3708 12.8579 12.7334 12.7479 13.0417 12.5419C13.35 12.3359 13.5904 12.043 13.7323 11.7004C13.8742 11.3578 13.9113 10.9808 13.839 10.6171C13.7666 10.2534 13.5881 9.91928 13.3258 9.65705C13.0636 9.39483 12.7295 9.21625 12.3658 9.14391C12.0021 9.07156 11.6251 9.10869 11.2825 9.2506C10.9399 9.39252 10.647 9.63284 10.441 9.94119C10.235 10.2495 10.125 10.612 10.125 10.9829C10.125 11.1818 10.046 11.3726 9.90534 11.5132C9.76469 11.6539 9.57392 11.7329 9.37501 11.7329C9.1761 11.7329 8.98533 11.6539 8.84468 11.5132C8.70403 11.3726 8.62501 11.1818 8.62501 10.9829C8.62509 10.3476 8.80449 9.72516 9.14259 9.18727C9.48068 8.64938 9.96373 8.21785 10.5362 7.94229C11.1086 7.66673 11.7472 7.55835 12.3785 7.62961C13.0099 7.70087 13.6082 7.94887 14.1049 8.34509C14.6015 8.74131 14.9762 9.26967 15.1859 9.86939C15.3956 10.4691 15.4317 11.1158 15.2902 11.7352C15.1487 12.3545 14.8352 12.9214 14.3858 13.3705C13.9364 13.8196 13.3694 14.1327 12.75 14.2739Z" fill="#777777"/>
</svg>
