<svg width="25" height="22" viewBox="0 0 25 22" fill="none" xmlns="http://www.w3.org/2000/svg">
    <path
        d="M14.6934 19.5223C14.6934 19.4321 14.6979 19.3413 14.7068 19.2489C14.7475 18.8426 14.8481 18.4815 14.9982 18.1704C15.1001 17.9581 15.2275 17.7705 15.3705 17.6064H2.17592C1.88098 17.6064 1.58914 17.6708 1.34019 17.8129C1.09081 17.9564 0.879406 18.1655 0.723031 18.4801C0.619344 18.6906 0.541109 18.9512 0.508484 19.2765C0.502672 19.3347 0.5 19.3919 0.5 19.4482C0.5 19.6627 0.53975 19.8642 0.614422 20.0577C0.689469 20.2508 0.799437 20.4358 0.940672 20.607C1.22173 20.9489 1.63025 21.2322 2.08072 21.3994C2.38062 21.5116 2.69745 21.5719 3.00312 21.5732H3.00266L15.6194 21.5804C15.3571 21.3346 15.1359 21.0459 14.975 20.721C14.7962 20.3594 14.6934 19.9523 14.6934 19.5223Z"
        fill="currentColor" />
    <path
        d="M24.4663 0.133301H7.64231C7.64991 1.20275 7.67362 2.32536 7.67362 3.49986C7.67362 5.54272 7.59942 7.73478 7.22489 10.04C6.87408 12.2008 6.25823 14.4612 5.19727 16.7856H17.2196V16.7919C17.6375 16.7972 18.0486 16.9027 18.4088 17.1042C18.7762 17.3103 19.0931 17.6209 19.2866 18.0236C19.4072 18.2761 19.464 18.5554 19.464 18.836C19.464 19.0671 19.4251 19.3004 19.3398 19.5207C19.254 19.7411 19.1199 19.9502 18.9264 20.1155C18.6439 20.3573 18.3011 20.4731 17.9745 20.4717C17.6889 20.4717 17.4144 20.3881 17.1817 20.2385C16.9484 20.0887 16.7544 19.871 16.6391 19.6016L17.3934 19.278C17.4409 19.3884 17.5213 19.4814 17.625 19.5475C17.7277 19.6141 17.8511 19.6512 17.9745 19.6512C18.1161 19.6503 18.2565 19.6065 18.3941 19.4907C18.4673 19.4282 18.5304 19.3384 18.5746 19.2235C18.6194 19.1095 18.6439 18.9732 18.6439 18.836C18.6439 18.6689 18.6068 18.5031 18.5469 18.3788C18.4334 18.1433 18.2461 17.9543 18.007 17.8197C17.7688 17.6861 17.481 17.611 17.1905 17.6119C16.9027 17.6114 16.6144 17.6834 16.3637 17.8313C16.1125 17.9802 15.8954 18.2014 15.7376 18.5267C15.633 18.7439 15.5561 19.0089 15.524 19.3311C15.5172 19.3959 15.5146 19.4599 15.5146 19.5224C15.5146 19.8219 15.5847 20.1008 15.7112 20.3573C15.8377 20.6138 16.0214 20.8471 16.2484 21.0442C16.5295 21.2891 16.875 21.4754 17.2472 21.581L17.6584 21.5814C18.0579 21.5801 18.3408 21.5086 18.6063 21.3901C18.8704 21.2717 19.1211 21.0951 19.4062 20.8672C20.5369 19.9658 21.4196 18.8458 22.1123 17.5668C22.805 16.2878 23.3042 14.85 23.6594 13.3328C24.3711 10.2983 24.5012 6.95089 24.5002 3.95347C24.5002 2.58814 24.4743 1.29655 24.4663 0.133301ZM10.1459 2.75488H16.522C16.5367 4.21138 16.5296 5.75141 16.3852 7.36025H10.0087C10.1531 5.75141 10.1607 4.21133 10.1459 2.75488ZM20.0843 14.3128H8.68767V13.3551H20.0843V14.3128ZM20.9755 10.7112H9.57881V9.75392H20.9755V10.7112Z"
        fill="currentColor" />
</svg>