<svg width="24" height="25" viewBox="0 0 24 25" fill="none" xmlns="http://www.w3.org/2000/svg">
<path d="M2.95238 1.83333C2.05821 1.83333 1.33333 2.55821 1.33333 3.45238V5.54762C1.33333 6.44179 2.05821 7.16667 2.95238 7.16667H5.04762C5.94179 7.16667 6.66667 6.44179 6.66667 5.54762V3.45238C6.66667 2.55821 5.94179 1.83333 5.04762 1.83333H2.95238ZM2.95238 0.5H5.04762C6.67817 0.5 8 1.82183 8 3.45238V5.54762C8 7.17817 6.67817 8.5 5.04762 8.5H2.95238C1.32183 8.5 0 7.17817 0 5.54762V3.45238C0 1.82183 1.32183 0.5 2.95238 0.5ZM2.95238 16.5H5.04762C6.67817 16.5 8 17.8218 8 19.4524V21.5476C8 23.1782 6.67817 24.5 5.04762 24.5H2.95238C1.32183 24.5 0 23.1782 0 21.5476V19.4524C0 17.8218 1.32183 16.5 2.95238 16.5ZM2.95238 17.8333C2.05821 17.8333 1.33333 18.5582 1.33333 19.4524V21.5476C1.33333 22.4418 2.05821 23.1667 2.95238 23.1667H5.04762C5.94179 23.1667 6.66667 22.4418 6.66667 21.5476V19.4524C6.66667 18.5582 5.94179 17.8333 5.04762 17.8333H2.95238ZM18.9524 0.5H21.0476C22.6782 0.5 24 1.82183 24 3.45238V5.54762C24 7.17817 22.6782 8.5 21.0476 8.5H18.9524C17.3218 8.5 16 7.17817 16 5.54762V3.45238C16 1.82183 17.3218 0.5 18.9524 0.5ZM18.9524 1.83333C18.0582 1.83333 17.3333 2.55821 17.3333 3.45238V5.54762C17.3333 6.44179 18.0582 7.16667 18.9524 7.16667H21.0476C21.9418 7.16667 22.6667 6.44179 22.6667 5.54762V3.45238C22.6667 2.55821 21.9418 1.83333 21.0476 1.83333H18.9524ZM13.3333 23.1667V22.5C13.3333 22.1318 13.6318 21.8333 14 21.8333C14.3682 21.8333 14.6667 22.1318 14.6667 22.5V23.1667H15.3333C15.7015 23.1667 16 23.4651 16 23.8333C16 24.2015 15.7015 24.5 15.3333 24.5H12.6667C12.2985 24.5 12 24.2015 12 23.8333C12 23.4651 12.2985 23.1667 12.6667 23.1667H13.3333ZM13.3333 11.1667H14.6667V10.5C14.6667 10.1318 14.9651 9.83333 15.3333 9.83333C15.7015 9.83333 16 10.1318 16 10.5V11.8333C16 12.2015 15.7015 12.5 15.3333 12.5H11.3333C10.9651 12.5 10.6667 12.2015 10.6667 11.8333C10.6667 11.4651 10.9651 11.1667 11.3333 11.1667H12V9.83333H11.3333C10.9651 9.83333 10.6667 9.53486 10.6667 9.16667C10.6667 8.79848 10.9651 8.5 11.3333 8.5H12.6667C13.0349 8.5 13.3333 8.79848 13.3333 9.16667V11.1667ZM21.3333 12.5V13.1667C21.3333 13.5349 21.0349 13.8333 20.6667 13.8333C20.2985 13.8333 20 13.5349 20 13.1667V10.5C20 10.1318 20.2985 9.83333 20.6667 9.83333C21.0349 9.83333 21.3333 10.1318 21.3333 10.5V11.1667H22.6667V10.5C22.6667 10.1318 22.9651 9.83333 23.3333 9.83333C23.7015 9.83333 24 10.1318 24 10.5V11.8333C24 12.2015 23.7015 12.5 23.3333 12.5H21.3333ZM13.3333 15.1667H11.3333C10.9651 15.1667 10.6667 14.8682 10.6667 14.5C10.6667 14.1318 10.9651 13.8333 11.3333 13.8333H14C14.3682 13.8333 14.6667 14.1318 14.6667 14.5V17.1667C14.6667 17.5349 14.3682 17.8333 14 17.8333H10C9.63181 17.8333 9.33333 17.5349 9.33333 17.1667C9.33333 16.7985 9.63181 16.5 10 16.5H13.3333V15.1667ZM3.33333 3.16667H4.66667C5.03486 3.16667 5.33333 3.46514 5.33333 3.83333V5.16667C5.33333 5.53486 5.03486 5.83333 4.66667 5.83333H3.33333C2.96514 5.83333 2.66667 5.53486 2.66667 5.16667V3.83333C2.66667 3.46514 2.96514 3.16667 3.33333 3.16667ZM3.33333 19.1667H4.66667C5.03486 19.1667 5.33333 19.4651 5.33333 19.8333V21.1667C5.33333 21.5349 5.03486 21.8333 4.66667 21.8333H3.33333C2.96514 21.8333 2.66667 21.5349 2.66667 21.1667V19.8333C2.66667 19.4651 2.96514 19.1667 3.33333 19.1667ZM19.3333 3.16667H20.6667C21.0349 3.16667 21.3333 3.46514 21.3333 3.83333V5.16667C21.3333 5.53486 21.0349 5.83333 20.6667 5.83333H19.3333C18.9651 5.83333 18.6667 5.53486 18.6667 5.16667V3.83333C18.6667 3.46514 18.9651 3.16667 19.3333 3.16667ZM13.3333 3.16667V1.83333H10.6667V3.83333C10.6667 4.20152 10.3682 4.5 10 4.5C9.63181 4.5 9.33333 4.20152 9.33333 3.83333V1.16667C9.33333 0.798477 9.63181 0.5 10 0.5H14C14.3682 0.5 14.6667 0.798477 14.6667 1.16667V3.83333C14.6667 4.20152 14.3682 4.5 14 4.5H12.6667C12.2985 4.5 12 4.20152 12 3.83333C12 3.46514 12.2985 3.16667 12.6667 3.16667H13.3333ZM10 7.16667C9.63181 7.16667 9.33333 6.86819 9.33333 6.5C9.33333 6.13181 9.63181 5.83333 10 5.83333H14C14.3682 5.83333 14.6667 6.13181 14.6667 6.5C14.6667 6.86819 14.3682 7.16667 14 7.16667H10ZM10.6667 20.5V23.8333C10.6667 24.2015 10.3682 24.5 10 24.5C9.63181 24.5 9.33333 24.2015 9.33333 23.8333V19.8333C9.33333 19.4651 9.63181 19.1667 10 19.1667H14C14.3682 19.1667 14.6667 19.4651 14.6667 19.8333C14.6667 20.2015 14.3682 20.5 14 20.5H10.6667ZM8 12.5H8.66667C9.03486 12.5 9.33333 12.7985 9.33333 13.1667V14.5C9.33333 14.8682 9.03486 15.1667 8.66667 15.1667C8.29848 15.1667 8 14.8682 8 14.5V13.8333H7.33333C6.96514 13.8333 6.66667 13.5349 6.66667 13.1667V10.5C6.66667 10.1318 6.96514 9.83333 7.33333 9.83333H8.66667C9.03486 9.83333 9.33333 10.1318 9.33333 10.5C9.33333 10.8682 9.03486 11.1667 8.66667 11.1667H8V12.5ZM4 11.1667H3.33333C2.96514 11.1667 2.66667 10.8682 2.66667 10.5C2.66667 10.1318 2.96514 9.83333 3.33333 9.83333H4.66667C5.03486 9.83333 5.33333 10.1318 5.33333 10.5V14.5C5.33333 14.8682 5.03486 15.1667 4.66667 15.1667C4.29848 15.1667 4 14.8682 4 14.5V11.1667ZM17.3333 10.5C17.3333 10.1318 17.6318 9.83333 18 9.83333C18.3682 9.83333 18.6667 10.1318 18.6667 10.5V13.1667C18.6667 13.5349 18.3682 13.8333 18 13.8333C17.6318 13.8333 17.3333 13.5349 17.3333 13.1667V10.5ZM22.6667 15.1667V14.5C22.6667 14.1318 22.9651 13.8333 23.3333 13.8333C23.7015 13.8333 24 14.1318 24 14.5V15.8333C24 16.2015 23.7015 16.5 23.3333 16.5H19.3333C18.9651 16.5 18.6667 16.2015 18.6667 15.8333C18.6667 15.4651 18.9651 15.1667 19.3333 15.1667H22.6667ZM17.3333 17.8333H20.6667C21.0349 17.8333 21.3333 18.1318 21.3333 18.5C21.3333 18.8682 21.0349 19.1667 20.6667 19.1667H16.6667C16.2985 19.1667 16 18.8682 16 18.5V15.8333C16 15.4651 16.2985 15.1667 16.6667 15.1667C17.0349 15.1667 17.3333 15.4651 17.3333 15.8333V17.8333ZM22.6667 23.1667V18.5C22.6667 18.1318 22.9651 17.8333 23.3333 17.8333C23.7015 17.8333 24 18.1318 24 18.5V23.8333C24 24.2015 23.7015 24.5 23.3333 24.5H18C17.6318 24.5 17.3333 24.2015 17.3333 23.8333C17.3333 23.4651 17.6318 23.1667 18 23.1667H22.6667ZM16.6667 21.8333C16.2985 21.8333 16 21.5349 16 21.1667C16 20.7985 16.2985 20.5 16.6667 20.5H20.6667C21.0349 20.5 21.3333 20.7985 21.3333 21.1667C21.3333 21.5349 21.0349 21.8333 20.6667 21.8333H16.6667ZM1.33333 13.8333H2C2.36819 13.8333 2.66667 14.1318 2.66667 14.5C2.66667 14.8682 2.36819 15.1667 2 15.1667H0.666667C0.298477 15.1667 0 14.8682 0 14.5V10.5C0 10.1318 0.298477 9.83333 0.666667 9.83333C1.03486 9.83333 1.33333 10.1318 1.33333 10.5V13.8333Z" fill="#4A4A4A"/>
</svg>
